<svg width="321.6783447265625px" height="141.2px" xmlns="http://www.w3.org/2000/svg" viewBox="89.16082763671875 4.400000000000006 321.6783447265625 141.2" style="background: rgba(0, 0, 0, 0);" preserveAspectRatio="xMidYMid"><defs><linearGradient id="editing-sticker-gradient" x1="0.5" y1="0.2" x2="0.5" y2="0.8"><stop offset="0" stop-color="#fd9"></stop><stop offset="1" stop-color="#9df"></stop></linearGradient><filter id="editing-sticker" x="-100%" y="-100%" width="300%" height="300%"><feMorphology operator="erode" radius="1" in="SourceAlpha" result="alpha-erode"></feMorphology><feConvolveMatrix order="3,3" divisor="1" kernelMatrix="0 1 0 1 1 1 0 1 0" in="alpha-erode" result="alpha-round"></feConvolveMatrix><feMorphology operator="dilate" radius="3.5" in="alpha-round" result="dilate-shadow"></feMorphology><feGaussianBlur in="dilate-shadow" stdDeviation="1.5" result="shadow"></feGaussianBlur><feFlood flood-color="#fff" result="flood-sticker"></feFlood><feComposite operator="in" in="flood-sticker" in2="alpha-round" result="comp-sticker"></feComposite><feMorphology operator="dilate" radius="3" in="comp-sticker" result="morph-sticker"></feMorphology><feConvolveMatrix order="3,3" divisor="1" kernelMatrix="0 1 0 1 1 1 0 1 0" in="morph-sticker" result="sticker"></feConvolveMatrix><feMerge><feMergeNode in="shadow"></feMergeNode><feMergeNode in="sticker"></feMergeNode><feMergeNode in="SourceGraphic"></feMergeNode></feMerge></filter></defs><g filter="url(#editing-sticker)"><g transform="translate(140.5080349445343, 100.50945281982422)"><path d="M19.20-32.51L19.20-32.51L19.20-32.51Q18.30-29.06 16.99-25.34L16.99-25.34L16.99-25.34Q15.68-21.63 14.27-18.30L14.27-18.30L14.27-18.30Q14.21-18.18 13.95-17.70L13.95-17.70L13.95-17.70Q13.70-17.22 13.57-17.28L13.57-17.28L13.57-17.28Q13.38-17.28 13.41-17.82L13.41-17.82L13.41-17.82Q13.44-18.37 13.50-18.56L13.50-18.56L13.50-18.56Q13.57-19.33 13.76-20.48L13.76-20.48L13.76-20.48Q13.95-21.63 14.18-22.85L14.18-22.85L14.18-22.85Q14.40-24.06 14.69-25.22L14.69-25.22L14.69-25.22Q14.98-26.37 15.23-27.20L15.23-27.20L15.23-27.20Q15.36-27.46 15.62-28.48L15.62-28.48L15.62-28.48Q15.87-29.50 16.16-30.94L16.16-30.94L16.16-30.94Q16.45-32.38 16.77-34.11L16.77-34.11L16.77-34.11Q17.09-35.84 17.34-37.50L17.34-37.50L16.58-37.70L16.58-37.70Q16.26-35.46 15.65-33.12L15.65-33.12L15.65-33.12Q15.04-30.78 14.30-28.45L14.30-28.45L14.30-28.45Q13.57-26.11 12.86-23.71L12.86-23.71L12.86-23.71Q12.16-21.31 11.58-18.94L11.58-18.94L11.58-18.94Q11.07-16.70 10.82-14.27L10.82-14.27L10.82-14.27Q10.56-11.84 10.62-9.38L10.62-9.38L10.62-9.38Q10.69-6.91 11.20-4.58L11.20-4.58L11.20-4.58Q11.71-2.24 12.74-0.26L12.74-0.26L12.74-0.26Q12.93 0.19 12.86 0.19L12.86 0.19L12.86 0.19Q12.74 0.19 12.67 0.13L12.67 0.13L12.54 0L12.54 0Q10.75-2.11 9.89-4.58L9.89-4.58L9.89-4.58Q9.02-7.04 8.80-9.66L8.80-9.66L8.80-9.66Q8.58-12.29 8.90-14.98L8.90-14.98L8.90-14.98Q9.22-17.66 9.79-20.22L9.79-20.22L9.79-20.22Q10.88-24.96 12.35-29.34L12.35-29.34L12.35-29.34Q13.82-33.73 14.85-37.95L14.85-37.95L14.85-37.95Q11.01-38.59 7.65-39.14L7.65-39.14L7.65-39.14Q4.29-39.68 1.41-39.10L1.41-39.10L1.41-39.10Q1.22-39.10 1.22-39.17L1.22-39.17L1.22-39.17Q1.22-39.30 1.31-39.33L1.31-39.33L1.31-39.33Q1.41-39.36 1.47-39.42L1.47-39.42L1.47-39.42Q3.65-40.70 6.11-40.83L6.11-40.83L6.11-40.83Q8.58-40.96 11.23-40.61L11.23-40.61L11.23-40.61Q13.89-40.26 16.67-39.71L16.67-39.71L16.67-39.71Q19.46-39.17 22.27-39.10L22.27-39.10L22.27-39.10Q24-39.04 25.89-39.39L25.89-39.39L25.89-39.39Q27.78-39.74 29.54-40.48L29.54-40.48L29.54-40.48Q31.30-41.22 32.74-42.43L32.74-42.43L32.74-42.43Q34.18-43.65 35.07-45.31L35.07-45.31L35.07-45.31Q35.20-45.63 35.33-45.63L35.33-45.63L35.33-45.44L35.33-45.31L35.33-45.31Q34.62-42.88 33.15-41.31L33.15-41.31L33.15-41.31Q31.68-39.74 29.79-38.78L29.79-38.78L29.79-38.78Q27.90-37.82 25.76-37.47L25.76-37.47L25.76-37.47Q23.62-37.12 21.57-37.18L21.57-37.18L21.57-37.18Q21.89-35.20 21.60-32.58L21.60-32.58L21.60-32.58Q21.31-29.95 20.74-27.26L20.74-27.26L20.74-27.26Q20.16-24.58 19.52-22.18L19.52-22.18L19.52-22.18Q18.88-19.78 18.50-18.30L18.50-18.30L18.50-18.30Q17.73-15.23 16.70-12.03L16.70-12.03L16.70-12.03Q15.68-8.83 14.85-6.40L14.85-6.40L14.85-6.40Q14.72-6.08 14.56-5.82L14.56-5.82L14.56-5.82Q14.40-5.57 14.27-5.63L14.27-5.63L14.27-5.63Q14.14-5.70 14.18-5.98L14.18-5.98L14.18-5.98Q14.21-6.27 14.21-6.59L14.21-6.59L14.21-6.59Q14.40-11.39 15.62-16.19L15.62-16.19L15.62-16.19Q16.83-20.99 18.24-25.86L18.24-25.86L18.24-25.86Q19.01-28.54 19.74-31.30L19.74-31.30L19.74-31.30Q20.48-34.05 20.80-37.18L20.80-37.18L20.80-37.18Q20.48-37.25 20.26-37.25L20.26-37.25L20.26-37.25Q20.03-37.25 19.71-37.25L19.71-37.25L19.71-37.25Q19.71-35.97 19.62-34.75L19.62-34.75L19.62-34.75Q19.52-33.54 19.20-32.51ZM20.93-46.14L20.93-46.14L20.93-46.14Q23.42-45.82 25.98-45.63L25.98-45.63L25.98-45.63Q28.54-45.44 30.40-45.44L30.40-45.44L30.40-45.44Q31.04-45.44 31.04-45.25L31.04-45.25L31.04-45.25Q31.04-44.99 30.40-44.80L30.40-44.80L30.40-44.80Q27.14-43.52 23.52-43.65L23.52-43.65L23.52-43.65Q19.90-43.78 16.19-44.35L16.19-44.35L16.19-44.35Q13.95-44.67 11.58-44.99L11.58-44.99L11.58-44.99Q9.22-45.31 6.46-44.99L6.46-44.99L6.46-44.99Q6.21-44.93 6.21-45.06L6.21-45.06L6.21-45.06Q6.21-45.18 6.34-45.25L6.34-45.25L6.34-45.25Q6.46-45.31 6.59-45.44L6.59-45.44L6.59-45.44Q7.81-46.34 9.73-46.62L9.73-46.62L9.73-46.62Q11.65-46.91 13.73-46.88L13.73-46.88L13.73-46.88Q15.81-46.85 17.73-46.59L17.73-46.59L17.73-46.59Q19.65-46.34 20.93-46.14ZM11.33-44.16L11.33-44.16L11.33-44.16Q14.02-43.78 16.80-43.20L16.80-43.20L16.80-43.20Q19.58-42.62 22.21-41.92L22.21-41.92L22.21-41.92Q22.34-41.79 22.75-41.70L22.75-41.70L22.75-41.70Q23.17-41.60 23.17-41.41L23.17-41.41L23.17-41.41Q23.17-41.28 22.78-41.22L22.78-41.22L22.78-41.22Q22.40-41.15 22.21-41.02L22.21-41.02L22.21-41.02Q21.63-40.90 20.77-40.90L20.77-40.90L20.77-40.90Q19.90-40.90 18.98-40.93L18.98-40.93L18.98-40.93Q18.05-40.96 17.15-41.02L17.15-41.02L17.15-41.02Q16.26-41.09 15.62-41.22L15.62-41.22L15.62-41.22Q15.17-41.28 13.41-41.47L13.41-41.47L13.41-41.47Q11.65-41.66 9.54-41.73L9.54-41.73L9.54-41.73Q7.42-41.79 5.47-41.70L5.47-41.70L5.47-41.70Q3.52-41.60 2.69-41.15L2.69-41.15L2.69-41.15Q2.43-41.02 2.37-41.02L2.37-41.02L2.30-41.02L2.30-41.02Q2.30-41.28 2.56-41.54L2.56-41.54L2.56-41.54Q3.20-42.37 4.32-42.94L4.32-42.94L4.32-42.94Q5.44-43.52 6.66-43.84L6.66-43.84L6.66-43.84Q7.87-44.16 9.12-44.22L9.12-44.22L9.12-44.22Q10.37-44.29 11.33-44.16ZM13.44-4.54L13.44-4.54L13.44-4.54Q13.63-3.46 13.92-2.37L13.92-2.37L13.92-2.37Q14.21-1.28 14.66-0.26L14.66-0.26L14.66-0.26Q14.91 0.26 14.72 0.26L14.72 0.26L14.72 0.26Q14.59 0.26 14.34 0.13L14.34 0.13L14.34 0.13Q14.21 0.06 14.14-0.06L14.14-0.06L14.14-0.06Q13.31-1.02 12.83-1.86L12.83-1.86L12.83-1.86Q12.35-2.69 12.03-4.54L12.03-4.54L12.03-4.54Q11.90-5.25 11.87-6.34L11.87-6.34L11.87-6.34Q11.84-7.42 11.90-8.45L11.90-8.45L11.90-8.45Q11.97-9.47 12.10-10.18L12.10-10.18L12.10-10.18Q12.22-10.88 12.48-10.88L12.48-10.88L12.48-10.88Q12.54-10.88 12.64-10.56L12.64-10.56L12.64-10.56Q12.74-10.24 12.80-9.82L12.80-9.82L12.80-9.82Q12.86-9.41 12.93-8.99L12.93-8.99L12.93-8.99Q12.99-8.58 12.99-8.45L12.99-8.45L12.99-8.45Q13.12-7.36 13.22-6.40L13.22-6.40L13.22-6.40Q13.31-5.44 13.44-4.54ZM32-44.61L32-44.61L32-44.61Q33.41-45.82 34.37-47.23L34.37-47.23L34.37-47.23Q34.50-47.49 34.62-47.49L34.62-47.49L34.62-47.49Q34.69-47.49 34.69-47.04L34.69-47.04L34.69-47.04Q34.69-46.78 34.62-46.59L34.62-46.59L34.62-46.59Q34.37-45.50 34.05-44.86L34.05-44.86L34.05-44.86Q33.73-44.22 32.51-43.33L32.51-43.33L32.51-43.33Q32.06-42.94 31.30-42.59L31.30-42.59L31.30-42.59Q30.53-42.24 29.82-41.98L29.82-41.98L29.82-41.98Q29.12-41.73 28.58-41.70L28.58-41.70L28.58-41.70Q28.03-41.66 27.97-41.92L27.97-41.92L27.97-41.92Q27.97-41.98 28.16-42.14L28.16-42.14L28.16-42.14Q28.35-42.30 28.64-42.50L28.64-42.50L28.64-42.50Q28.93-42.69 29.18-42.85L29.18-42.85L29.18-42.85Q29.44-43.01 29.57-43.07L29.57-43.07L29.57-43.07Q30.21-43.39 30.82-43.78L30.82-43.78L30.82-43.78Q31.42-44.16 32-44.61ZM47.04-45.82L47.04-45.82L47.04-45.82Q46.91-46.02 46.69-46.43L46.69-46.43L46.69-46.43Q46.46-46.85 46.59-46.98L46.59-46.98L46.59-46.98Q46.72-47.10 47.01-46.91L47.01-46.91L47.01-46.91Q47.30-46.72 47.36-46.66L47.36-46.66L47.36-46.66Q48.51-45.82 49.50-44.35L49.50-44.35L49.50-44.35Q50.50-42.88 51.30-41.12L51.30-41.12L51.30-41.12Q52.10-39.36 52.74-37.44L52.74-37.44L52.74-37.44Q53.38-35.52 53.76-33.79L53.76-33.79L53.76-33.79Q54.72-29.57 55.39-25.47L55.39-25.47L55.39-25.47Q56.06-21.38 56.06-17.02L56.06-17.02L56.06-17.02Q56.06-16.90 56.10-16.26L56.10-16.26L56.10-16.26Q56.13-15.62 55.87-15.49L55.87-15.49L55.87-15.49Q55.68-15.62 55.46-16.13L55.46-16.13L55.46-16.13Q55.23-16.64 55.17-16.83L55.17-16.83L55.17-16.83Q54.40-19.20 53.79-22.24L53.79-22.24L53.79-22.24Q53.18-25.28 52.67-27.78L52.67-27.78L52.67-27.78Q52.29-29.70 51.97-31.46L51.97-31.46L51.97-31.46Q51.65-33.22 51.23-34.88L51.23-34.88L51.23-34.88Q50.82-36.54 50.27-38.24L50.27-38.24L50.27-38.24Q49.73-39.94 48.96-41.79L48.96-41.79L48.96-41.79Q48.83-42.05 48.54-42.69L48.54-42.69L48.54-42.69Q48.26-43.33 47.94-43.97L47.94-43.97L47.94-43.97Q47.62-44.61 47.36-45.15L47.36-45.15L47.36-45.15Q47.10-45.70 47.04-45.82ZM62.40 1.60L62.40 1.60L62.40 1.60Q61.70 1.22 61.44 1.12L61.44 1.12L61.44 1.12Q61.18 1.02 60.48 0.58L60.48 0.58L60.48 0.58Q58.94-0.32 57.66-1.76L57.66-1.76L57.66-1.76Q56.38-3.20 55.36-4.93L55.36-4.93L55.36-4.93Q54.34-6.66 53.54-8.61L53.54-8.61L53.54-8.61Q52.74-10.56 52.16-12.48L52.16-12.48L52.16-12.48Q50.88-11.65 49.12-11.49L49.12-11.49L49.12-11.49Q47.36-11.33 45.89-11.33L45.89-11.33L45.89-11.33Q44.03-11.33 42.21-11.46L42.21-11.46L42.21-11.46Q40.38-11.58 38.53-11.58L38.53-11.58L38.53-11.58Q36.74-8.26 35.17-5.15L35.17-5.15L35.17-5.15Q33.60-2.05 32.70 0.64L32.70 0.64L32.70 0.64Q32.70 0.70 32.64 0.93L32.64 0.93L32.64 0.93Q32.58 1.15 32.45 1.15L32.45 1.15L32.45 1.15Q32.26 1.15 32.26 0.70L32.26 0.70L32.26 0.70Q32.26 0.26 32.26 0.13L32.26 0.13L32.26 0.13Q32.26-2.43 33.50-5.60L33.50-5.60L33.50-5.60Q34.75-8.77 36.29-11.84L36.29-11.84L35.33-11.90L35.33-11.90Q34.94-11.01 34.27-9.41L34.27-9.41L34.27-9.41Q33.60-7.81 32.99-6.08L32.99-6.08L32.99-6.08Q32.38-4.35 31.90-2.75L31.90-2.75L31.90-2.75Q31.42-1.15 31.42-0.19L31.42-0.19L31.42-0.19Q31.42 0 31.23 0L31.23 0L31.23 0Q30.98 0 30.85-0.42L30.85-0.42L30.85-0.42Q30.72-0.83 30.62-1.34L30.62-1.34L30.62-1.34Q30.53-1.86 30.50-2.40L30.50-2.40L30.50-2.40Q30.46-2.94 30.46-3.14L30.46-3.14L30.46-3.14Q30.46-5.38 31.04-7.84L31.04-7.84L31.04-7.84Q31.62-10.30 32.58-12.35L32.58-12.35L31.74-12.48L31.74-12.48Q31.17-11.07 30.66-9.70L30.66-9.70L30.66-9.70Q30.14-8.32 29.76-6.85L29.76-6.85L29.76-6.85Q29.76-6.72 29.70-6.53L29.70-6.53L29.70-6.53Q29.63-6.34 29.50-6.40L29.50-6.40L29.50-6.40Q29.38-6.66 29.34-7.01L29.34-7.01L29.34-7.01Q29.31-7.36 29.31-7.62L29.31-7.62L29.31-7.62Q29.31-10.30 30.27-12.80L30.27-12.80L30.27-12.80Q30.59-13.44 30.91-13.44L30.91-13.44L30.91-13.44Q32.26-13.82 33.63-13.89L33.63-13.89L33.63-13.89Q35.01-13.95 36.48-13.95L36.48-13.95L36.48-13.95Q39.68-13.95 42.82-13.47L42.82-13.47L42.82-13.47Q45.95-12.99 49.09-12.99L49.09-12.99L49.09-12.99Q50.62-12.99 51.90-13.25L51.90-13.25L51.78-14.27L51.78-14.27Q51.07-14.08 50.27-14.02L50.27-14.02L50.27-14.02Q49.47-13.95 48.77-13.95L48.77-13.95L48.77-13.95Q46.27-13.95 43.62-14.46L43.62-14.46L43.62-14.46Q40.96-14.98 38.53-15.68L38.53-15.68L38.53-15.68Q38.40-15.81 38.02-15.90L38.02-15.90L38.02-15.90Q37.63-16 37.63-16.19L37.63-16.19L37.63-16.19Q37.63-16.32 38.02-16.42L38.02-16.42L38.02-16.42Q38.40-16.51 38.53-16.51L38.53-16.51L38.53-16.51Q39.42-16.58 40.29-16.61L40.29-16.61L40.29-16.61Q41.15-16.64 42.05-16.64L42.05-16.64L42.05-16.64Q43.52-16.64 44.99-16.61L44.99-16.61L44.99-16.61Q46.46-16.58 48-16.58L48-16.58L48-16.58Q48.77-16.58 49.60-16.58L49.60-16.58L49.60-16.58Q50.43-16.58 51.20-16.64L51.20-16.64L51.07-17.34L50.24-17.34L50.24-17.34Q47.17-17.34 44.13-17.92L44.13-17.92L44.13-17.92Q41.09-18.50 38.02-18.50L38.02-18.50L38.02-18.50Q35.39-18.50 33.38-17.86L33.38-17.86L33.38-17.86Q31.36-17.22 29.92-16.38L29.92-16.38L29.92-16.38Q28.48-15.55 27.58-14.72L27.58-14.72L27.58-14.72Q26.69-13.89 26.30-13.50L26.30-13.50L26.30-13.50Q26.18-13.44 26.18-13.44L26.18-13.44L26.18-13.44Q26.11-13.44 26.11-13.57L26.11-13.57L26.11-13.57Q26.11-13.63 26.18-13.70L26.18-13.70L26.18-13.70Q27.33-15.94 28.99-17.44L28.99-17.44L28.99-17.44Q30.66-18.94 33.09-19.71L33.09-19.71L33.09-19.71Q35.52-24.90 38.11-30.02L38.11-30.02L38.11-30.02Q40.70-35.14 43.58-40.13L43.58-40.13L43.58-40.13Q43.65-40.26 43.84-40.54L43.84-40.54L43.84-40.54Q44.03-40.83 44.22-40.83L44.22-40.83L44.22-40.83Q44.29-40.77 44.29-40.70L44.29-40.70L44.29-40.58L44.29-40.58Q44.29-40.06 44.22-39.81L44.22-39.81L44.22-39.81Q43.01-34.62 40.64-29.82L40.64-29.82L40.64-29.82Q38.27-25.02 35.78-20.35L35.78-20.35L36.99-20.42L36.99-20.42Q37.18-20.80 37.98-22.08L37.98-22.08L37.98-22.08Q38.78-23.36 39.71-24.74L39.71-24.74L39.71-24.74Q40.64-26.11 41.41-27.23L41.41-27.23L41.41-27.23Q42.18-28.35 42.37-28.35L42.37-28.35L42.43-28.16L42.43-28.16Q42.43-27.84 42.05-26.75L42.05-26.75L42.05-26.75Q41.66-25.66 41.15-24.38L41.15-24.38L41.15-24.38Q40.64-23.10 40.16-21.98L40.16-21.98L40.16-21.98Q39.68-20.86 39.49-20.42L39.49-20.42L39.49-20.42Q39.87-20.42 40.26-20.38L40.26-20.38L40.26-20.38Q40.64-20.35 41.02-20.35L41.02-20.35L41.02-20.35Q42.18-22.66 43.49-25.18L43.49-25.18L43.49-25.18Q44.80-27.71 45.76-30.34L45.76-30.34L45.76-30.34Q46.72-32.96 47.07-35.65L47.07-35.65L47.07-35.65Q47.42-38.34 46.66-40.96L46.66-40.96L46.66-40.96Q46.66-40.64 46.50-39.68L46.50-39.68L46.50-39.68Q46.34-38.72 46.08-37.66L46.08-37.66L46.08-37.66Q45.82-36.61 45.57-35.81L45.57-35.81L45.57-35.81Q45.31-35.01 45.06-35.01L45.06-35.01L45.06-35.01Q44.86-35.01 44.90-35.26L44.90-35.26L44.90-35.26Q44.93-35.52 44.93-35.58L44.93-35.58L44.93-35.58Q44.93-37.25 45.15-38.88L45.15-38.88L45.15-38.88Q45.38-40.51 45.38-42.18L45.38-42.18L45.38-42.18Q45.38-44.42 44.67-46.53L44.67-46.53L44.67-46.53Q44.67-46.59 44.48-47.07L44.48-47.07L44.48-47.07Q44.29-47.55 44.61-47.55L44.61-47.55L44.61-47.55Q44.74-47.55 45.06-47.23L45.06-47.23L45.06-47.23Q45.70-46.59 46.30-45.50L46.30-45.50L46.30-45.50Q46.91-44.42 47.42-43.17L47.42-43.17L47.42-43.17Q47.94-41.92 48.38-40.70L48.38-40.70L48.38-40.70Q48.83-39.49 49.09-38.66L49.09-38.66L49.09-38.66Q49.92-35.90 50.46-33.12L50.46-33.12L50.46-33.12Q51.01-30.34 51.42-27.55L51.42-27.55L51.42-27.55Q51.84-24.77 52.29-21.95L52.29-21.95L52.29-21.95Q52.74-19.14 53.31-16.38L53.31-16.38L53.31-16.38Q53.89-13.70 54.69-11.14L54.69-11.14L54.69-11.14Q55.49-8.58 56.64-6.27L56.64-6.27L56.64-6.27Q57.79-3.97 59.30-2.02L59.30-2.02L59.30-2.02Q60.80-0.06 62.78 1.41L62.78 1.41L62.78 1.41Q63.10 1.73 63.01 1.82L63.01 1.82L63.01 1.82Q62.91 1.92 62.40 1.60ZM62.08-4.61L62.27-3.84L62.27-3.84Q62.34-3.46 62.21-3.49L62.21-3.49L62.21-3.49Q62.08-3.52 61.92-3.71L61.92-3.71L61.92-3.71Q61.76-3.90 61.60-4.16L61.60-4.16L61.60-4.16Q61.44-4.42 61.44-4.48L61.44-4.48L61.44-4.48Q59.90-7.30 59.01-10.21L59.01-10.21L59.01-10.21Q58.11-13.12 57.60-16.10L57.60-16.10L57.60-16.10Q57.09-19.07 56.74-22.11L56.74-22.11L56.74-22.11Q56.38-25.15 55.90-28.32L55.90-28.32L55.90-28.32Q55.42-31.49 54.66-34.75L54.66-34.75L54.66-34.75Q53.89-38.02 52.48-41.41L52.48-41.41L52.48-41.41Q52.42-41.54 52.29-41.86L52.29-41.86L52.29-41.86Q52.16-42.18 52.29-42.24L52.29-42.24L52.29-42.24Q52.42-42.24 52.61-42.05L52.61-42.05L52.86-41.79L52.86-41.79Q54.27-40.13 55.36-37.38L55.36-37.38L55.36-37.38Q56.45-34.62 57.28-31.49L57.28-31.49L57.28-31.49Q58.11-28.35 58.66-25.28L58.66-25.28L58.66-25.28Q59.20-22.21 59.52-19.90L59.52-19.90L59.52-19.90Q60.03-16.26 60.61-12.22L60.61-12.22L60.61-12.22Q61.18-8.19 62.08-4.61L62.08-4.61ZM43.26-20.10L43.26-20.10L43.26-20.10Q45.12-19.90 46.94-19.65L46.94-19.65L46.94-19.65Q48.77-19.39 50.62-19.26L50.62-19.26L50.62-19.26Q49.92-22.66 49.41-25.98L49.41-25.98L49.41-25.98Q48.90-29.31 48.45-32.77L48.45-32.77L48.45-32.77Q47.62-29.44 46.18-26.30L46.18-26.30L46.18-26.30Q44.74-23.17 43.26-20.10ZM64.32 0.90L64.32 0.90L64.32 0.90Q63.04 0.32 62.08-0.22L62.08-0.22L62.08-0.22Q61.12-0.77 60.42-1.73L60.42-1.73L60.42-1.73Q59.33-3.20 58.72-4.67L58.72-4.67L58.72-4.67Q58.11-6.14 57.73-7.42L57.73-7.42L57.73-7.42Q57.60-7.94 57.50-8.58L57.50-8.58L57.50-8.58Q57.41-9.22 57.54-9.22L57.54-9.22L57.54-9.22Q57.79-9.22 58.18-8.38L58.18-8.38L58.18-8.38Q58.56-7.55 58.88-6.98L58.88-6.98L58.88-6.98Q59.84-4.99 61.31-2.98L61.31-2.98L61.31-2.98Q62.78-0.96 64.51 0.32L64.51 0.32L64.51 0.32Q65.02 0.77 64.83 0.90L64.83 0.90L64.83 0.90Q64.64 1.02 64.32 0.90ZM26.50-11.39L26.50-11.39L26.50-11.39Q26.50-11.39 26.37-11.39L26.37-11.39L26.30-11.39L26.30-11.39Q26.30-11.58 26.37-11.78L26.37-11.78L26.37-11.78Q26.43-11.97 26.50-12.16L26.50-12.16L26.50-12.16Q27.01-13.25 27.49-13.79L27.49-13.79L27.49-13.79Q27.97-14.34 29.06-14.98L29.06-14.98L29.06-14.98Q29.70-15.36 30.85-15.74L30.85-15.74L30.85-15.74Q32-16.13 32.70-16.13L32.70-16.13L32.70-16.13Q32.83-16.13 33.06-16.10L33.06-16.10L33.06-16.10Q33.28-16.06 33.28-15.87L33.28-15.87L33.28-15.87Q33.28-15.68 32.61-15.36L32.61-15.36L32.61-15.36Q31.94-15.04 31.74-14.91L31.74-14.91L31.74-14.91Q29.31-13.44 28.16-12.67L28.16-12.67L28.16-12.67Q27.01-11.90 26.50-11.39ZM81.73-32.19L81.73-32.19L81.73-32.19Q82.30-28.80 82.43-24.77L82.43-24.77L82.43-24.77Q82.56-20.74 82.69-17.34L82.69-17.34L82.69-17.34Q82.69-17.15 82.66-16.64L82.66-16.64L82.66-16.64Q82.62-16.13 82.37-16.06L82.37-16.06L82.37-16.06Q82.24-16.06 82.05-16.61L82.05-16.61L82.05-16.61Q81.86-17.15 81.79-17.34L81.79-17.34L81.79-17.34Q81.54-18.11 81.31-19.14L81.31-19.14L81.31-19.14Q81.09-20.16 80.90-21.22L80.90-21.22L80.90-21.22Q80.70-22.27 80.58-23.33L80.58-23.33L80.58-23.33Q80.45-24.38 80.38-25.28L80.38-25.28L80.38-25.28Q80.38-25.47 80.29-26.37L80.29-26.37L80.29-26.37Q80.19-27.26 80-28.45L80-28.45L80-28.45Q79.81-29.63 79.55-31.01L79.55-31.01L79.55-31.01Q79.30-32.38 78.98-33.66L78.98-33.66L78.98-33.66Q78.98-30.98 78.88-28.38L78.88-28.38L78.88-28.38Q78.78-25.79 78.98-23.17L78.98-23.17L78.98-23.17Q79.10-21.50 79.36-19.94L79.36-19.94L79.36-19.94Q79.62-18.37 79.94-16.77L79.94-16.77L79.94-16.77Q80.38-14.53 81.28-12.29L81.28-12.29L81.28-12.29Q82.18-10.05 83.42-8.06L83.42-8.06L83.42-8.06Q84.67-6.08 86.30-4.45L86.30-4.45L86.30-4.45Q87.94-2.82 89.86-1.86L89.86-1.86L89.86-1.86Q90.18-1.73 90.14-1.57L90.14-1.57L90.14-1.57Q90.11-1.41 89.86-1.47L89.86-1.47L89.86-1.47Q87.23-2.05 85.25-3.62L85.25-3.62L85.25-3.62Q83.26-5.18 81.76-7.36L81.76-7.36L81.76-7.36Q80.26-9.54 79.30-12.10L79.30-12.10L79.30-12.10Q78.34-14.66 77.82-17.22L77.82-17.22L77.82-17.22Q77.63-18.30 77.44-19.39L77.44-19.39L77.44-19.39Q77.25-20.48 77.12-21.57L77.12-21.57L77.12-21.57Q76.16-18.50 75.04-15.55L75.04-15.55L75.04-15.55Q73.92-12.61 72.90-9.92L72.90-9.92L72.90-9.92Q71.87-7.23 71.10-4.74L71.10-4.74L71.10-4.74Q70.34-2.24 69.95 0L69.95 0L69.95 0Q69.89 0.06 69.89 0.13L69.89 0.13L69.89 0.13Q69.76 0.26 69.76 0.26L69.76 0.26L69.76 0.26Q69.57 0.26 69.57 0L69.57 0L69.57 0Q69.12-2.94 69.79-6.05L69.79-6.05L69.79-6.05Q70.46-9.15 71.65-12.42L71.65-12.42L71.65-12.42Q72.83-15.68 74.18-19.10L74.18-19.10L74.18-19.10Q75.52-22.53 76.42-26.05L76.42-26.05L76.42-26.05Q76.99-28.22 77.25-30.69L77.25-30.69L77.25-30.69Q77.50-33.15 77.38-35.55L77.38-35.55L77.38-35.55Q77.25-37.95 76.58-40.19L76.58-40.19L76.58-40.19Q75.90-42.43 74.69-44.29L74.69-44.29L74.69-44.29Q74.37-44.67 74.50-44.80L74.50-44.80L74.50-44.80Q74.62-44.93 74.88-44.80L74.88-44.80L74.88-44.80Q75.14-44.67 75.33-44.48L75.33-44.48L75.33-44.48Q76.61-43.20 77.60-42.02L77.60-42.02L77.60-42.02Q78.59-40.83 79.36-39.42L79.36-39.42L79.36-39.42Q80.13-38.02 80.70-36.29L80.70-36.29L80.70-36.29Q81.28-34.56 81.73-32.19ZM89.47-17.28L89.47-17.28L89.47-17.28Q89.86-19.14 90.18-20.54L90.18-20.54L90.18-20.54Q90.50-21.95 90.91-23.23L90.91-23.23L90.91-23.23Q91.33-24.51 91.87-25.82L91.87-25.82L91.87-25.82Q92.42-27.14 93.25-28.74L93.25-28.74L93.25-28.74Q93.38-28.93 93.66-29.41L93.66-29.41L93.66-29.41Q93.95-29.89 94.14-29.82L94.14-29.82L94.14-29.82Q94.27-29.82 94.21-29.25L94.21-29.25L94.21-29.25Q94.14-28.67 94.08-28.48L94.08-28.48L94.08-28.48Q93.89-27.65 93.60-26.56L93.60-26.56L93.60-26.56Q93.31-25.47 92.99-24.29L92.99-24.29L92.99-24.29Q92.67-23.10 92.35-21.95L92.35-21.95L92.35-21.95Q92.03-20.80 91.84-19.97L91.84-19.97L91.84-19.97Q91.58-18.88 91.30-17.31L91.30-17.31L91.30-17.31Q91.01-15.74 90.72-13.82L90.72-13.82L90.72-13.82Q90.43-11.90 90.27-9.73L90.27-9.73L90.27-9.73Q90.11-7.55 90.18-5.25L90.18-5.25L90.18-5.25Q89.60-5.57 88.99-6.05L88.99-6.05L88.99-6.05Q88.38-6.53 87.81-7.42L87.81-7.42L87.81-7.42Q86.46-9.34 85.73-11.49L85.73-11.49L85.73-11.49Q84.99-13.63 84.54-15.94L84.54-15.94L84.54-15.94Q84.10-18.24 83.90-20.64L83.90-20.64L83.90-20.64Q83.71-23.04 83.46-25.34L83.46-25.34L83.46-25.34Q83.14-28.35 82.88-31.42L82.88-31.42L82.88-31.42Q82.62-34.50 81.54-37.76L81.54-37.76L81.54-37.76Q81.41-38.08 81.38-38.11L81.38-38.11L81.38-38.11Q81.34-38.14 81.47-38.21L81.47-38.21L81.47-38.21Q81.66-38.21 81.86-37.89L81.86-37.89L81.86-37.89Q82.69-37.06 83.30-35.49L83.30-35.49L83.30-35.49Q83.90-33.92 84.38-32L84.38-32L84.38-32Q84.86-30.08 85.22-27.94L85.22-27.94L85.22-27.94Q85.57-25.79 85.82-23.78L85.82-23.78L85.82-23.78Q86.08-21.76 86.30-20.06L86.30-20.06L86.30-20.06Q86.53-18.37 86.72-17.28L86.72-17.28L86.72-17.28Q87.17-20.99 87.68-23.90L87.68-23.90L87.68-23.90Q88.19-26.82 88.77-28.61L88.77-28.61L88.77-28.61Q89.28-30.21 89.98-31.94L89.98-31.94L89.98-31.94Q90.69-33.66 91.52-35.36L91.52-35.36L91.52-35.36Q92.35-37.06 93.22-38.59L93.22-38.59L93.22-38.59Q94.08-40.13 94.85-41.28L94.85-41.28L94.85-41.28Q95.04-41.60 95.23-41.86L95.23-41.86L95.23-41.86Q95.42-42.11 95.55-41.98L95.55-41.98L95.55-41.98Q95.68-41.86 95.58-41.57L95.58-41.57L95.58-41.57Q95.49-41.28 95.36-40.96L95.36-40.96L95.36-40.96Q94.53-38.46 93.79-36.48L93.79-36.48L93.79-36.48Q93.06-34.50 92.32-32.58L92.32-32.58L92.32-32.58Q91.58-30.66 90.94-28.58L90.94-28.58L90.94-28.58Q90.30-26.50 89.66-23.94L89.66-23.94L89.66-23.94Q89.28-22.27 88.77-20.42L88.77-20.42L88.77-20.42Q88.26-18.56 87.97-16.61L87.97-16.61L87.97-16.61Q87.68-14.66 87.78-12.64L87.78-12.64L87.78-12.64Q87.87-10.62 88.70-8.70L88.70-8.70L88.70-8.70Q88.64-9.79 88.70-11.17L88.70-11.17L88.70-11.17Q88.77-12.54 88.93-13.79L88.93-13.79L88.93-13.79Q89.09-15.04 89.25-16L89.25-16L89.25-16Q89.41-16.96 89.47-17.28ZM88.19-5.50L88.19-5.50L88.19-5.50Q88.90-4.74 89.66-4.13L89.66-4.13L89.66-4.13Q90.43-3.52 91.33-3.01L91.33-3.01L91.33-3.01Q90.82-5.89 91.14-8.99L91.14-8.99L91.14-8.99Q91.46-12.10 92.22-15.30L92.22-15.30L92.22-15.30Q92.99-18.50 94.02-21.70L94.02-21.70L94.02-21.70Q95.04-24.90 96-27.97L96-27.97L96-27.97Q97.41-32.45 98.27-37.28L98.27-37.28L98.27-37.28Q99.14-42.11 99.26-46.91L99.26-46.91L99.26-46.91Q99.26-47.42 99.33-47.42L99.33-47.42L99.33-47.42Q99.52-47.42 99.52-47.10L99.52-47.10L99.52-47.10Q100.10-44.35 100.16-41.76L100.16-41.76L100.16-41.76Q100.22-39.17 99.90-36.64L99.90-36.64L99.90-36.64Q99.58-34.11 99.01-31.62L99.01-31.62L99.01-31.62Q98.43-29.12 97.66-26.56L97.66-26.56L97.66-26.56Q96.70-23.10 95.68-19.62L95.68-19.62L95.68-19.62Q94.66-16.13 93.86-12.77L93.86-12.77L93.86-12.77Q93.06-9.41 92.67-6.18L92.67-6.18L92.67-6.18Q92.29-2.94 92.54-0.06L92.54-0.06L92.54-0.06Q92.54 0.19 92.42 0.19L92.42 0.19L92.42 0.19Q92.29 0.19 92.26 0.10L92.26 0.10L92.26 0.10Q92.22 0 92.16-0.06L92.16-0.06L92.16-0.06Q91.90-0.70 91.87-0.77L91.87-0.77L91.87-0.77Q91.84-0.83 91.65-1.47L91.65-1.47L91.65-1.47Q91.52-1.98 91.26-2.18L91.26-2.18L91.26-2.18Q91.01-2.37 90.88-2.43L90.88-2.43L90.88-2.43Q89.79-2.82 89.02-3.14L89.02-3.14L89.02-3.14Q88.26-3.46 86.98-4.74L86.98-4.74L86.98-4.74Q86.46-5.25 85.89-6.14L85.89-6.14L85.89-6.14Q85.31-7.04 84.86-7.90L84.86-7.90L84.86-7.90Q84.42-8.77 84.22-9.44L84.22-9.44L84.22-9.44Q84.03-10.11 84.22-10.18L84.22-10.18L84.22-10.18Q84.29-10.18 84.54-9.95L84.54-9.95L84.54-9.95Q84.80-9.73 85.06-9.44L85.06-9.44L85.06-9.44Q85.31-9.15 85.54-8.83L85.54-8.83L85.54-8.83Q85.76-8.51 85.82-8.45L85.82-8.45L85.82-8.45Q86.98-6.72 88.19-5.50ZM69.44-26.82L69.44-26.82L69.44-26.82Q70.21-29.76 71.26-32.83L71.26-32.83L71.26-32.83Q72.32-35.90 73.02-38.34L73.02-38.34L73.02-38.34Q73.15-38.66 73.25-38.91L73.25-38.91L73.25-38.91Q73.34-39.17 73.47-39.10L73.47-39.10L73.47-39.10Q73.60-39.10 73.60-38.78L73.60-38.78L73.60-38.78Q73.60-38.46 73.60-38.14L73.60-38.14L73.60-38.14Q73.66-33.47 72.38-28.80L72.38-28.80L72.38-28.80Q71.10-24.13 69.50-19.58L69.50-19.58L69.50-19.58Q68.48-16.70 67.46-13.73L67.46-13.73L67.46-13.73Q66.43-10.75 65.92-7.30L65.92-7.30L65.92-7.30Q65.86-6.98 65.86-6.94L65.86-6.94L65.86-6.94Q65.86-6.91 65.73-6.91L65.73-6.91L65.73-6.91Q65.66-6.91 65.54-7.36L65.54-7.36L65.54-7.36Q65.15-9.09 65.57-11.71L65.57-11.71L65.57-11.71Q65.98-14.34 66.69-17.18L66.69-17.18L66.69-17.18Q67.39-20.03 68.22-22.62L68.22-22.62L68.22-22.62Q69.06-25.22 69.44-26.82ZM68.22-13.18L68.22-13.18L68.22-13.18Q69.38-16.45 70.82-20L70.82-20L70.82-20Q72.26-23.55 73.73-26.75L73.73-26.75L73.73-26.75Q73.79-26.88 74.05-27.33L74.05-27.33L74.05-27.33Q74.30-27.78 74.43-27.78L74.43-27.78L74.43-27.78Q74.56-27.71 74.59-27.20L74.59-27.20L74.59-27.20Q74.62-26.69 74.50-26.50L74.50-26.50L74.50-26.50Q74.37-25.73 74.14-24.61L74.14-24.61L74.14-24.61Q73.92-23.49 73.60-22.30L73.60-22.30L73.60-22.30Q73.28-21.12 72.96-20.03L72.96-20.03L72.96-20.03Q72.64-18.94 72.38-18.18L72.38-18.18L72.38-18.18Q72.19-17.60 71.52-15.36L71.52-15.36L71.52-15.36Q70.85-13.12 70.14-10.40L70.14-10.40L70.14-10.40Q69.44-7.68 68.90-5.12L68.90-5.12L68.90-5.12Q68.35-2.56 68.48-1.34L68.48-1.34L68.48-1.34Q68.48-0.77 68.29-0.77L68.29-0.77L68.29-0.77Q68.22-0.77 68.13-0.99L68.13-0.99L68.13-0.99Q68.03-1.22 67.90-1.34L67.90-1.34L67.90-1.34Q67.39-2.43 67.23-3.97L67.23-3.97L67.23-3.97Q67.07-5.50 67.17-7.17L67.17-7.17L67.17-7.17Q67.26-8.83 67.55-10.40L67.55-10.40L67.55-10.40Q67.84-11.97 68.22-13.18ZM96.77-42.82L96.77-42.82L96.77-42.82Q97.02-44.10 97.15-45.28L97.15-45.28L97.15-45.28Q97.28-46.46 97.41-47.81L97.41-47.81L97.41-47.81Q97.41-47.94 97.47-48.10L97.47-48.10L97.47-48.10Q97.54-48.26 97.66-48.26L97.66-48.26L97.66-48.26Q97.73-48.26 97.92-47.94L97.92-47.94L97.92-47.94Q97.98-47.81 97.98-47.68L97.98-47.68L97.98-47.68Q98.18-47.04 98.27-46.53L98.27-46.53L98.27-46.53Q98.37-46.02 98.40-45.44L98.40-45.44L98.40-45.44Q98.43-44.86 98.40-44.13L98.40-44.13L98.40-44.13Q98.37-43.39 98.18-42.43L98.18-42.43L98.18-42.43Q98.05-41.66 97.76-40.58L97.76-40.58L97.76-40.58Q97.47-39.49 97.15-38.50L97.15-38.50L97.15-38.50Q96.83-37.50 96.54-36.83L96.54-36.83L96.54-36.83Q96.26-36.16 96.06-36.22L96.06-36.22L96.06-36.22Q95.94-36.22 95.94-36.58L95.94-36.58L95.94-36.58Q95.94-36.93 96-37.34L96-37.34L96-37.34Q96.06-37.76 96.13-38.21L96.13-38.21L96.13-38.21Q96.19-38.66 96.19-38.91L96.19-38.91L96.77-42.82ZM74.30-40.13L74.30-40.13L74.30-40.13Q74.05-41.22 73.70-42.24L73.70-42.24L73.70-42.24Q73.34-43.26 72.77-44.16L72.77-44.16L72.77-44.16Q72.51-44.54 72.64-44.61L72.64-44.61L72.64-44.61Q72.77-44.61 73.02-44.48L73.02-44.48L73.28-44.35L73.28-44.35Q74.11-43.58 74.72-42.82L74.72-42.82L74.72-42.82Q75.33-42.05 75.71-40.26L75.71-40.26L75.71-40.26Q75.90-39.55 75.97-38.50L75.97-38.50L75.97-38.50Q76.03-37.44 76-36.42L76-36.42L76-36.42Q75.97-35.39 75.84-34.69L75.84-34.69L75.84-34.69Q75.71-33.98 75.46-34.05L75.46-34.05L75.46-34.05Q75.33-34.05 75.26-34.37L75.26-34.37L75.26-34.37Q75.20-34.69 75.14-35.10L75.14-35.10L75.14-35.10Q75.07-35.52 75.01-35.90L75.01-35.90L75.01-35.90Q74.94-36.29 74.94-36.42L74.94-36.42L74.94-36.42Q74.82-37.44 74.69-38.34L74.69-38.34L74.69-38.34Q74.56-39.23 74.30-40.13ZM116.03-12.35L116.03-12.35L116.03-12.35Q118.08-10.50 119.87-8.42L119.87-8.42L119.87-8.42Q121.66-6.34 123.33-4.10L123.33-4.10L123.33-4.10Q123.39-3.97 123.68-3.62L123.68-3.62L123.68-3.62Q123.97-3.26 123.84-3.14L123.84-3.14L123.84-3.14Q123.78-3.07 123.36-3.23L123.36-3.23L123.36-3.23Q122.94-3.39 122.82-3.52L122.82-3.52L122.82-3.52Q122.30-3.84 121.63-4.35L121.63-4.35L121.63-4.35Q120.96-4.86 120.22-5.44L120.22-5.44L120.22-5.44Q119.49-6.02 118.78-6.62L118.78-6.62L118.78-6.62Q118.08-7.23 117.63-7.74L117.63-7.74L117.63-7.74Q117.31-8 116.10-9.06L116.10-9.06L116.10-9.06Q114.88-10.11 113.34-11.33L113.34-11.33L113.34-11.33Q111.81-12.54 110.21-13.57L110.21-13.57L110.21-13.57Q108.61-14.59 107.58-14.85L107.58-14.85L107.58-14.85Q107.39-14.91 107.04-15.04L107.04-15.04L107.04-15.04Q106.69-15.17 106.75-15.49L106.75-15.49L106.75-15.49Q107.26-17.92 108.03-20.22L108.03-20.22L108.03-20.22Q108.80-22.53 109.50-24.96L109.50-24.96L109.50-24.96Q110.40-27.97 111.20-31.10L111.20-31.10L111.20-31.10Q112-34.24 112.13-37.89L112.13-37.89L112.13-37.89Q112.13-38.21 112.19-38.21L112.19-38.21L112.19-38.21Q112.38-38.21 112.51-37.76L112.51-37.76L112.51-37.76Q113.28-36.03 113.15-33.28L113.15-33.28L113.15-33.28Q113.02-30.53 112.48-27.55L112.48-27.55L112.48-27.55Q111.94-24.58 111.14-21.86L111.14-21.86L111.14-21.86Q110.34-19.14 109.76-17.54L109.76-17.54L109.57-17.02L109.57-17.02Q111.94-18.62 114.50-20.22L114.50-20.22L114.50-20.22Q117.06-21.82 119.26-23.46L119.26-23.46L119.26-23.46Q121.47-25.09 123.10-26.85L123.10-26.85L123.10-26.85Q124.74-28.61 125.31-30.53L125.31-30.53L125.31-30.53Q125.70-31.81 125.22-33.09L125.22-33.09L125.22-33.09Q124.74-34.37 123.55-35.49L123.55-35.49L123.55-35.49Q122.37-36.61 120.58-37.44L120.58-37.44L120.58-37.44Q118.78-38.27 116.61-38.59L116.61-38.59L116.61-38.59Q113.73-38.98 110.78-38.78L110.78-38.78L110.78-38.78Q111.04-36.86 110.88-34.91L110.88-34.91L110.88-34.91Q110.72-32.96 110.40-31.55L110.40-31.55L110.40-31.55Q109.57-28.10 108.29-24.42L108.29-24.42L108.29-24.42Q107.01-20.74 105.66-17.54L105.66-17.54L105.66-17.54Q105.54-17.34 105.28-16.90L105.28-16.90L105.28-16.90Q105.02-16.45 104.83-16.51L104.83-16.51L104.83-16.51Q104.70-16.58 104.77-17.09L104.77-17.09L104.77-17.09Q104.83-17.60 104.83-17.79L104.83-17.79L104.83-17.79Q104.90-18.56 105.12-19.68L105.12-19.68L105.12-19.68Q105.34-20.80 105.57-22.02L105.57-22.02L105.57-22.02Q105.79-23.23 106.08-24.35L106.08-24.35L106.08-24.35Q106.37-25.47 106.62-26.30L106.62-26.30L106.62-26.30Q106.75-26.69 107.04-27.94L107.04-27.94L107.04-27.94Q107.33-29.18 107.65-30.91L107.65-30.91L107.65-30.91Q107.97-32.64 108.29-34.62L108.29-34.62L108.29-34.62Q108.61-36.61 108.80-38.46L108.80-38.46L107.90-38.34L107.90-38.34Q107.71-35.90 107.14-33.41L107.14-33.41L107.14-33.41Q106.56-30.91 105.82-28.38L105.82-28.38L105.82-28.38Q105.09-25.86 104.29-23.26L104.29-23.26L104.29-23.26Q103.49-20.67 102.91-18.18L102.91-18.18L102.91-18.18Q102.40-15.94 102.11-13.50L102.11-13.50L102.11-13.50Q101.82-11.07 101.92-8.70L101.92-8.70L101.92-8.70Q102.02-6.34 102.50-4.13L102.50-4.13L102.50-4.13Q102.98-1.92 104.06-0.13L104.06-0.13L104.06-0.13Q104.19 0.19 104.06 0.19L104.06 0.19L104.06 0.19Q103.94 0.19 103.74 0L103.74 0L103.74 0Q102.14-1.86 101.31-4.16L101.31-4.16L101.31-4.16Q100.48-6.46 100.26-8.99L100.26-8.99L100.26-8.99Q100.03-11.52 100.32-14.21L100.32-14.21L100.32-14.21Q100.61-16.90 101.18-19.46L101.18-19.46L101.18-19.46Q102.27-24.26 103.81-28.93L103.81-28.93L103.81-28.93Q105.34-33.60 106.37-37.95L106.37-37.95L106.37-37.95Q104.77-37.57 103.23-37.02L103.23-37.02L103.23-37.02Q101.70-36.48 100.35-35.84L100.35-35.84L100.35-35.84Q100.03-35.71 99.97-35.78L99.97-35.78L99.97-35.78Q99.90-35.84 100.03-36L100.03-36L100.03-36Q100.16-36.16 100.29-36.22L100.29-36.22L100.29-36.22Q103.49-38.85 108.10-39.94L108.10-39.94L108.10-39.94Q112.70-41.02 117.50-40.51L117.50-40.51L117.50-40.51Q120-40.19 122.08-39.10L122.08-39.10L122.08-39.10Q124.16-38.02 125.50-36.45L125.50-36.45L125.50-36.45Q126.85-34.88 127.26-32.96L127.26-32.96L127.26-32.96Q127.68-31.04 126.85-29.12L126.85-29.12L126.85-29.12Q125.89-26.88 123.81-24.96L123.81-24.96L123.81-24.96Q121.73-23.04 119.14-21.38L119.14-21.38L119.14-21.38Q116.54-19.71 113.66-18.30L113.66-18.30L113.66-18.30Q110.78-16.90 108.29-15.68L108.29-15.68L108.29-15.68Q109.31-15.68 110.40-15.36L110.40-15.36L110.40-15.36Q111.49-15.04 112.54-14.56L112.54-14.56L112.54-14.56Q113.60-14.08 114.53-13.50L114.53-13.50L114.53-13.50Q115.46-12.93 116.03-12.35ZM133.76-28.35L133.76-28.35L133.76-28.35Q132.80-25.02 130.85-22.69L130.85-22.69L130.85-22.69Q128.90-20.35 126.53-18.82L126.53-18.82L126.53-18.82Q124.16-17.28 121.73-16.48L121.73-16.48L121.73-16.48Q119.30-15.68 117.50-15.42L117.50-15.42L117.50-15.42Q116.99-15.30 116.58-15.33L116.58-15.33L116.58-15.33Q116.16-15.36 116.22-15.49L116.22-15.49L116.22-15.49Q116.10-15.62 116.51-15.74L116.51-15.74L116.51-15.74Q116.93-15.87 117.38-16.06L117.38-16.06L117.38-16.06Q120.83-17.34 124.03-19.39L124.03-19.39L124.03-19.39Q127.23-21.44 129.66-24.83L129.66-24.83L129.66-24.83Q130.82-26.43 131.39-28.54L131.39-28.54L131.39-28.54Q131.97-30.66 131.81-32.83L131.81-32.83L131.81-32.83Q131.65-35.01 130.72-37.06L130.72-37.06L130.72-37.06Q129.79-39.10 128-40.58L128-40.58L128-40.58Q125.89-42.37 123.39-43.39L123.39-43.39L123.39-43.39Q120.90-44.42 118.27-44.80L118.27-44.80L118.27-44.80Q115.65-45.18 112.96-44.96L112.96-44.96L112.96-44.96Q110.27-44.74 107.78-44.10L107.78-44.10L107.78-44.10Q107.33-43.97 107.26-43.94L107.26-43.94L107.26-43.94Q107.20-43.90 107.14-44.03L107.14-44.03L107.14-44.03Q107.14-44.10 107.65-44.48L107.65-44.48L107.65-44.48Q108.67-45.12 110.37-45.66L110.37-45.66L110.37-45.66Q112.06-46.21 114.21-46.40L114.21-46.40L114.21-46.40Q116.35-46.59 118.85-46.37L118.85-46.37L118.85-46.37Q121.34-46.14 123.97-45.18L123.97-45.18L123.97-45.18Q126.66-44.29 129.02-42.40L129.02-42.40L129.02-42.40Q131.39-40.51 132.80-37.76L132.80-37.76L132.80-37.76Q134.14-35.07 134.18-32.54L134.18-32.54L134.18-32.54Q134.21-30.02 133.76-28.35ZM101.25-38.78L101.25-38.78L101.25-38.78Q102.53-40.64 104.64-41.82L104.64-41.82L104.64-41.82Q106.75-43.01 109.25-43.58L109.25-43.58L109.25-43.58Q111.74-44.16 114.46-44.10L114.46-44.10L114.46-44.10Q117.18-44.03 119.74-43.46L119.74-43.46L119.74-43.46Q122.30-42.88 124.51-41.73L124.51-41.73L124.51-41.73Q126.72-40.58 128.19-38.91L128.19-38.91L128.19-38.91Q129.22-37.70 129.76-36.32L129.76-36.32L129.76-36.32Q130.30-34.94 130.34-33.50L130.34-33.50L130.34-33.50Q130.37-32.06 130.02-30.72L130.02-30.72L130.02-30.72Q129.66-29.38 129.02-28.22L129.02-28.22L129.02-28.22Q128.90-27.97 128.38-27.36L128.38-27.36L128.38-27.36Q127.87-26.75 127.74-26.88L127.74-26.88L127.74-26.88Q127.62-26.94 127.94-27.58L127.94-27.58L127.94-27.58Q128.26-28.22 128.38-28.54L128.38-28.54L128.38-28.54Q128.90-30.21 128.80-31.84L128.80-31.84L128.80-31.84Q128.70-33.47 128.16-34.88L128.16-34.88L128.16-34.88Q127.62-36.29 126.72-37.41L126.72-37.41L126.72-37.41Q125.82-38.53 124.80-39.23L124.80-39.23L124.80-39.23Q122.37-40.83 119.30-41.50L119.30-41.50L119.30-41.50Q116.22-42.18 113.06-42.02L113.06-42.02L113.06-42.02Q109.89-41.86 106.88-40.93L106.88-40.93L106.88-40.93Q103.87-40 101.70-38.46L101.70-38.46L101.70-38.46Q101.12-37.95 100.93-38.14L100.93-38.14L100.93-38.14Q100.80-38.21 100.96-38.43L100.96-38.43L100.96-38.43Q101.12-38.66 101.25-38.78ZM135.36 1.54L135.36 1.54L135.36 1.54Q135.74 1.47 135.74 1.60L135.74 1.60L135.74 1.60Q135.74 1.73 135.42 1.86L135.42 1.86L135.42 1.86Q133.12 2.69 130.94 2.75L130.94 2.75L130.94 2.75Q128.77 2.82 126.78 2.34L126.78 2.34L126.78 2.34Q124.80 1.86 123.07 0.99L123.07 0.99L123.07 0.99Q121.34 0.13 119.94-0.90L119.94-0.90L119.94-0.90Q118.27-2.11 116.77-3.62L116.77-3.62L116.77-3.62Q115.26-5.12 113.86-6.62L113.86-6.62L113.86-6.62Q112.45-8.13 111.04-9.54L111.04-9.54L111.04-9.54Q109.63-10.94 108.16-12.03L108.16-12.03L108.16-12.03Q107.07-8.45 106.18-5.70L106.18-5.70L106.18-5.70Q106.05-5.38 105.92-5.12L105.92-5.12L105.92-5.12Q105.79-4.86 105.66-4.93L105.66-4.93L105.66-4.93Q105.54-4.99 105.54-5.28L105.54-5.28L105.54-5.28Q105.54-5.57 105.54-5.89L105.54-5.89L105.54-5.89Q105.66-7.68 105.79-9.54L105.79-9.54L105.79-9.54Q105.92-11.39 106.37-13.25L106.37-13.25L106.37-13.25Q105.92-13.50 105.50-13.70L105.50-13.70L105.50-13.70Q105.09-13.89 104.58-14.14L104.58-14.14L104.58-14.14Q104.38-14.34 104.38-14.40L104.38-14.40L104.38-14.40Q104.38-14.46 104.54-14.46L104.54-14.46L104.54-14.46Q104.70-14.46 104.83-14.46L104.83-14.46L104.83-14.46Q107.39-14.27 109.50-12.90L109.50-12.90L109.50-12.90Q111.62-11.52 113.60-9.66L113.60-9.66L113.60-9.66Q115.58-7.81 117.50-5.73L117.50-5.73L117.50-5.73Q119.42-3.65 121.60-2.05L121.60-2.05L121.60-2.05Q122.82-1.15 124.38-0.42L124.38-0.42L124.38-0.42Q125.95 0.32 127.74 0.83L127.74 0.83L127.74 0.83Q129.54 1.34 131.49 1.57L131.49 1.57L131.49 1.57Q133.44 1.79 135.36 1.54ZM125.44-7.81L125.44-7.81L125.44-7.81Q127.23-6.21 128.86-4.22L128.86-4.22L128.86-4.22Q130.50-2.24 132.03-1.02L132.03-1.02L132.03-1.02Q132.48-0.58 132.42-0.38L132.42-0.38L132.42-0.38Q132.29-0.26 132.10-0.32L132.10-0.32L132.10-0.32Q131.90-0.38 131.65-0.45L131.65-0.45L131.65-0.45Q129.92-1.02 128.42-2.05L128.42-2.05L128.42-2.05Q126.91-3.07 125.50-4.35L125.50-4.35L125.50-4.35Q124.10-5.63 122.78-7.04L122.78-7.04L122.78-7.04Q121.47-8.45 120.13-9.79L120.13-9.79L120.13-9.79Q119.23-10.69 118.18-11.78L118.18-11.78L118.18-11.78Q117.12-12.86 115.97-13.79L115.97-13.79L115.97-13.79Q114.82-14.72 113.57-15.33L113.57-15.33L113.57-15.33Q112.32-15.94 110.98-15.94L110.98-15.94L113.47-17.02L113.47-17.02Q114.43-17.47 115.84-18.11L115.84-18.11L115.84-18.11Q117.25-18.75 118.53-19.33L118.53-19.33L118.53-19.33Q119.81-19.90 120.77-20.26L120.77-20.26L120.77-20.26Q121.73-20.61 121.79-20.54L121.79-20.54L121.79-20.54Q121.86-20.42 121.57-20.10L121.57-20.10L121.57-20.10Q121.28-19.78 120.80-19.39L120.80-19.39L120.80-19.39Q120.32-19.01 119.87-18.69L119.87-18.69L119.87-18.69Q119.42-18.37 119.23-18.30L119.23-18.30L119.23-18.30Q118.02-17.60 116.96-16.99L116.96-16.99L116.96-16.99Q115.90-16.38 114.82-15.87L114.82-15.87L114.82-15.87Q116.29-15.30 117.82-14.24L117.82-14.24L117.82-14.24Q119.36-13.18 120.77-11.97L120.77-11.97L120.77-11.97Q122.18-10.75 123.39-9.63L123.39-9.63L123.39-9.63Q124.61-8.51 125.44-7.81ZM104.70-3.84L104.70-3.84L104.70-3.84Q104.90-2.75 105.22-1.73L105.22-1.73L105.22-1.73Q105.54-0.70 105.98 0L105.98 0L105.98 0Q106.05 0 106.08 0.10L106.08 0.10L106.08 0.10Q106.11 0.19 105.98 0.19L105.98 0.19L105.98 0.19Q105.86 0.19 105.70 0.10L105.70 0.10L105.70 0.10Q105.54 0 105.41 0L105.41 0L105.41 0Q104.58-0.51 104.10-1.25L104.10-1.25L104.10-1.25Q103.62-1.98 103.30-3.84L103.30-3.84L103.30-3.84Q103.17-4.54 103.17-5.63L103.17-5.63L103.17-5.63Q103.17-6.72 103.23-7.71L103.23-7.71L103.23-7.71Q103.30-8.70 103.42-9.41L103.42-9.41L103.42-9.41Q103.55-10.11 103.81-10.11L103.81-10.11L103.81-10.11Q103.87-10.11 103.97-9.79L103.97-9.79L103.97-9.79Q104.06-9.47 104.13-9.06L104.13-9.06L104.13-9.06Q104.19-8.64 104.22-8.26L104.22-8.26L104.22-8.26Q104.26-7.87 104.26-7.74L104.26-7.74L104.26-7.74Q104.38-6.66 104.45-5.70L104.45-5.70L104.45-5.70Q104.51-4.74 104.70-3.84ZM132.74 0.19L132.74 0.19L132.74 0.19Q133.76 0.26 134.30 0.22L134.30 0.22L134.30 0.22Q134.85 0.19 135.74 0.06L135.74 0.06L135.74 0.06Q135.81 0.06 136.06 0.03L136.06 0.03L136.06 0.03Q136.32 0 136.38 0.06L136.38 0.06L136.38 0.06Q136.45 0.19 136.22 0.38L136.22 0.38L136.22 0.38Q136 0.58 135.87 0.64L135.87 0.64L135.87 0.64Q134.85 0.96 133.98 1.09L133.98 1.09L133.98 1.09Q133.12 1.22 131.46 1.02L131.46 1.02L131.46 1.02Q130.88 0.96 130.18 0.77L130.18 0.77L130.18 0.77Q129.47 0.58 128.90 0.35L128.90 0.35L128.90 0.35Q128.32 0.13 128-0.10L128-0.10L128-0.10Q127.68-0.32 127.87-0.45L127.87-0.45L127.87-0.45Q128-0.51 128.67-0.35L128.67-0.35L128.67-0.35Q129.34-0.19 129.60-0.13L129.60-0.13L129.60-0.13Q130.50 0.06 131.26 0.13L131.26 0.13L131.26 0.13Q132.03 0.19 132.74 0.19ZM147.97-32.51L147.97-32.51L147.97-32.51Q147.07-29.06 145.76-25.34L145.76-25.34L145.76-25.34Q144.45-21.63 143.04-18.30L143.04-18.30L143.04-18.30Q142.98-18.18 142.78-17.70L142.78-17.70L142.78-17.70Q142.59-17.22 142.34-17.28L142.34-17.28L142.34-17.28Q142.21-17.28 142.24-17.82L142.24-17.82L142.24-17.82Q142.27-18.37 142.27-18.56L142.27-18.56L142.27-18.56Q142.34-19.33 142.53-20.48L142.53-20.48L142.53-20.48Q142.72-21.63 142.98-22.85L142.98-22.85L142.98-22.85Q143.23-24.06 143.49-25.22L143.49-25.22L143.49-25.22Q143.74-26.37 144-27.20L144-27.20L144-27.20Q144.13-27.58 144.42-28.77L144.42-28.77L144.42-28.77Q144.70-29.95 145.06-31.62L145.06-31.62L145.06-31.62Q145.41-33.28 145.76-35.20L145.76-35.20L145.76-35.20Q146.11-37.12 146.37-38.91L146.37-38.91L146.37-38.91Q146.62-40.70 146.69-42.18L146.69-42.18L146.69-42.18Q146.75-43.65 146.50-44.48L146.50-44.48L146.50-44.48Q146.37-44.74 146.43-44.90L146.43-44.90L146.43-44.90Q146.50-45.06 146.56-45.06L146.56-45.06L146.56-45.06Q146.69-45.06 146.75-44.90L146.75-44.90L146.75-44.90Q146.82-44.74 146.94-44.61L146.94-44.61L146.94-44.61Q147.65-43.52 148.03-41.98L148.03-41.98L148.03-41.98Q148.42-40.45 148.51-38.75L148.51-38.75L148.51-38.75Q148.61-37.06 148.45-35.39L148.45-35.39L148.45-35.39Q148.29-33.73 147.97-32.51ZM147.39-18.30L147.39-18.30L147.39-18.30Q146.62-15.23 145.54-12.03L145.54-12.03L145.54-12.03Q144.45-8.83 143.62-6.40L143.62-6.40L143.62-6.40Q143.49-6.08 143.36-5.79L143.36-5.79L143.36-5.79Q143.23-5.50 143.17-5.63L143.17-5.63L143.17-5.63Q143.04-5.63 143.01-5.95L143.01-5.95L143.01-5.95Q142.98-6.27 142.98-6.59L142.98-6.59L142.98-6.59Q143.17-11.39 144.35-16.19L144.35-16.19L144.35-16.19Q145.54-20.99 147.01-25.86L147.01-25.86L147.01-25.86Q147.90-28.86 148.64-32.03L148.64-32.03L148.64-32.03Q149.38-35.20 149.63-38.85L149.63-38.85L149.63-38.85Q149.63-39.17 149.82-39.17L149.82-39.17L149.82-39.17Q149.89-39.17 149.95-39.04L149.95-39.04L149.95-39.04Q150.02-38.91 150.08-38.78L150.08-38.78L150.08-38.78Q150.78-37.06 150.62-34.27L150.62-34.27L150.62-34.27Q150.46-31.49 149.89-28.51L149.89-28.51L149.89-28.51Q149.31-25.54 148.54-22.75L148.54-22.75L148.54-22.75Q147.78-19.97 147.39-18.30ZM141.50-0.26L141.50-0.26L141.50-0.26Q141.70 0.13 141.63 0.13L141.63 0.13L141.63 0.13Q141.50 0.13 141.38 0.06L141.38 0.06L141.38 0.06Q141.25 0 141.18 0L141.18 0L141.18 0Q139.39-2.11 138.56-4.58L138.56-4.58L138.56-4.58Q137.73-7.04 137.57-9.66L137.57-9.66L137.57-9.66Q137.41-12.29 137.76-14.98L137.76-14.98L137.76-14.98Q138.11-17.66 138.69-20.22L138.69-20.22L138.69-20.22Q139.52-23.74 140.61-27.23L140.61-27.23L140.61-27.23Q141.70-30.72 142.62-34.02L142.62-34.02L142.62-34.02Q143.55-37.31 144.16-40.38L144.16-40.38L144.16-40.38Q144.77-43.46 144.70-46.27L144.70-46.27L144.70-46.27Q144.70-46.59 144.83-46.66L144.83-46.66L144.83-46.66Q144.90-46.66 144.99-46.46L144.99-46.46L144.99-46.46Q145.09-46.27 145.09-46.21L145.09-46.21L145.09-46.21Q145.98-43.14 145.66-39.84L145.66-39.84L145.66-39.84Q145.34-36.54 144.42-33.09L144.42-33.09L144.42-33.09Q143.49-29.63 142.34-26.05L142.34-26.05L142.34-26.05Q141.18-22.46 140.35-18.94L140.35-18.94L140.35-18.94Q139.84-16.70 139.55-14.27L139.55-14.27L139.55-14.27Q139.26-11.84 139.36-9.38L139.36-9.38L139.36-9.38Q139.46-6.91 139.97-4.58L139.97-4.58L139.97-4.58Q140.48-2.24 141.50-0.26ZM142.21-4.54L142.21-4.54L142.21-4.54Q142.53-2.50 143.49-0.26L143.49-0.26L143.49-0.26Q143.55-0.13 143.58 0.06L143.58 0.06L143.58 0.06Q143.62 0.26 143.49 0.26L143.49 0.26L143.49 0.26Q143.36 0.26 143.10 0.13L143.10 0.13L143.10 0.13Q142.98 0.06 142.91-0.06L142.91-0.06L142.91-0.06Q142.08-1.02 141.60-1.86L141.60-1.86L141.60-1.86Q141.12-2.69 140.80-4.54L140.80-4.54L140.80-4.54Q140.67-5.25 140.64-6.34L140.64-6.34L140.64-6.34Q140.61-7.42 140.67-8.45L140.67-8.45L140.67-8.45Q140.74-9.47 140.90-10.18L140.90-10.18L140.90-10.18Q141.06-10.88 141.31-10.88L141.31-10.88L141.31-10.88Q141.38-10.88 141.47-10.56L141.47-10.56L141.47-10.56Q141.57-10.24 141.63-9.82L141.63-9.82L141.63-9.82Q141.70-9.41 141.73-8.99L141.73-8.99L141.73-8.99Q141.76-8.58 141.76-8.45L141.76-8.45L141.76-8.45Q141.89-7.36 141.95-6.40L141.95-6.40L141.95-6.40Q142.02-5.44 142.21-4.54ZM183.49-22.27L183.49-22.27L183.49-22.27Q183.42-22.08 183.26-21.76L183.26-21.76L183.26-21.76Q183.10-21.44 182.91-21.09L182.91-21.09L182.91-21.09Q182.72-20.74 182.53-20.51L182.53-20.51L182.53-20.51Q182.34-20.29 182.27-20.35L182.27-20.35L182.27-20.35Q182.27-20.35 182.34-20.67L182.34-20.67L182.34-20.67Q182.40-20.99 182.50-21.38L182.50-21.38L182.50-21.38Q182.59-21.76 182.69-22.11L182.69-22.11L182.69-22.11Q182.78-22.46 182.78-22.59L182.78-22.59L182.78-22.59Q183.74-27.71 182.78-31.42L182.78-31.42L182.78-31.42Q181.82-35.14 179.55-37.50L179.55-37.50L179.55-37.50Q177.28-39.87 173.98-41.02L173.98-41.02L173.98-41.02Q170.69-42.18 167.04-42.24L167.04-42.24L167.04-42.24Q164.42-42.24 161.89-41.82L161.89-41.82L161.89-41.82Q159.36-41.41 157.28-40.77L157.28-40.77L157.28-40.77Q155.20-40.13 153.76-39.36L153.76-39.36L153.76-39.36Q152.32-38.59 151.94-37.89L151.94-37.89L151.94-37.89Q151.49-37.12 151.68-38.08L151.68-38.08L151.68-38.08Q152.19-39.74 154.40-41.15L154.40-41.15L154.40-41.15Q156.61-42.56 159.55-43.46L159.55-43.46L159.55-43.46Q162.50-44.35 165.73-44.64L165.73-44.64L165.73-44.64Q168.96-44.93 171.58-44.29L171.58-44.29L171.58-44.29Q173.31-43.90 175.04-43.20L175.04-43.20L175.04-43.20Q176.77-42.50 178.34-41.50L178.34-41.50L178.34-41.50Q179.90-40.51 181.22-39.14L181.22-39.14L181.22-39.14Q182.53-37.76 183.42-35.97L183.42-35.97L183.42-35.97Q185.15-32.51 185.12-28.83L185.12-28.83L185.12-28.83Q185.09-25.15 183.49-22.27ZM187.65-22.72L187.65-22.72L187.65-22.72Q186.43-19.14 184.42-16.26L184.42-16.26L184.42-16.26Q182.40-13.38 180.10-11.10L180.10-11.10L180.10-11.10Q177.79-8.83 175.36-7.17L175.36-7.17L175.36-7.17Q172.93-5.50 170.82-4.35L170.82-4.35L170.82-4.35Q170.18-4.03 169.73-3.84L169.73-3.84L169.73-3.84Q169.28-3.65 169.28-3.78L169.28-3.78L169.28-3.78Q169.15-3.84 169.63-4.19L169.63-4.19L169.63-4.19Q170.11-4.54 170.62-4.93L170.62-4.93L170.62-4.93Q174.21-7.81 177.57-11.01L177.57-11.01L177.57-11.01Q180.93-14.21 183.62-18.30L183.62-18.30L183.62-18.30Q184.96-20.42 185.66-22.94L185.66-22.94L185.66-22.94Q186.37-25.47 186.37-28.16L186.37-28.16L186.37-28.16Q186.37-30.85 185.63-33.47L185.63-33.47L185.63-33.47Q184.90-36.10 183.36-38.34L183.36-38.34L183.36-38.34Q181.31-41.28 178.40-43.01L178.40-43.01L178.40-43.01Q175.49-44.74 172.16-45.41L172.16-45.41L172.16-45.41Q168.83-46.08 165.31-45.82L165.31-45.82L165.31-45.82Q161.79-45.57 158.53-44.61L158.53-44.61L158.53-44.61Q158.02-44.48 157.92-44.42L157.92-44.42L157.92-44.42Q157.82-44.35 157.76-44.48L157.76-44.48L157.76-44.48Q157.70-44.61 157.95-44.74L157.95-44.74L157.95-44.74Q158.21-44.86 158.40-44.99L158.40-44.99L158.40-44.99Q159.81-45.76 162.05-46.40L162.05-46.40L162.05-46.40Q164.29-47.04 167.10-47.17L167.10-47.17L167.10-47.17Q169.92-47.30 173.12-46.69L173.12-46.69L173.12-46.69Q176.32-46.08 179.58-44.35L179.58-44.35L179.58-44.35Q183.10-42.43 185.06-39.49L185.06-39.49L185.06-39.49Q187.01-36.54 187.78-33.44L187.78-33.44L187.78-33.44Q188.54-30.34 188.42-27.42L188.42-27.42L188.42-27.42Q188.29-24.51 187.65-22.72ZM159.81-0.77L159.81-0.77L159.81-0.77Q159.49-1.28 159.01-2.40L159.01-2.40L159.01-2.40Q158.53-3.52 158.27-5.06L158.27-5.06L158.27-5.06Q158.14-5.82 158.11-6.78L158.11-6.78L158.11-6.78Q158.08-7.74 158.14-8.61L158.14-8.61L158.14-8.61Q158.21-9.47 158.34-10.05L158.34-10.05L158.34-10.05Q158.46-10.62 158.72-10.62L158.72-10.62L158.72-10.62Q158.78-10.62 158.88-10.27L158.88-10.27L158.88-10.27Q158.98-9.92 159.07-9.47L159.07-9.47L159.07-9.47Q159.17-9.02 159.20-8.61L159.20-8.61L159.20-8.61Q159.23-8.19 159.23-8L159.23-8L159.23-8Q159.36-6.34 159.65-4.67L159.65-4.67L159.65-4.67Q159.94-3.01 160.51-1.47L160.51-1.47L160.51-1.47Q162.75-4.22 165.63-7.04L165.63-7.04L165.63-7.04Q168.51-9.86 171.26-12.77L171.26-12.77L171.26-12.77Q174.02-15.68 176.29-18.75L176.29-18.75L176.29-18.75Q178.56-21.82 179.58-25.09L179.58-25.09L179.58-25.09Q180.29-27.33 179.87-29.76L179.87-29.76L179.87-29.76Q179.46-32.19 178.24-34.18L178.24-34.18L178.24-34.18Q177.02-36.10 174.78-37.38L174.78-37.38L174.78-37.38Q172.54-38.66 169.86-39.17L169.86-39.17L169.86-39.17Q168.77-39.36 167.71-39.49L167.71-39.49L167.71-39.49Q166.66-39.62 165.50-39.62L165.50-39.62L165.50-39.62Q165.70-38.66 165.73-37.54L165.73-37.54L165.73-37.54Q165.76-36.42 165.70-35.33L165.70-35.33L165.70-35.33Q165.63-34.24 165.50-33.25L165.50-33.25L165.50-33.25Q165.38-32.26 165.18-31.49L165.18-31.49L165.18-31.49Q164.29-28.03 163.07-24.54L163.07-24.54L163.07-24.54Q161.86-21.06 160.51-17.86L160.51-17.86L160.51-17.86Q160.38-17.66 160.16-17.25L160.16-17.25L160.16-17.25Q159.94-16.83 159.81-16.83L159.81-16.83L159.81-16.83Q159.68-16.83 159.68-17.34L159.68-17.34L159.68-17.34Q159.68-17.86 159.74-18.05L159.74-18.05L159.74-18.05Q159.81-18.82 160-19.94L160-19.94L160-19.94Q160.19-21.06 160.42-22.21L160.42-22.21L160.42-22.21Q160.64-23.36 160.90-24.48L160.90-24.48L160.90-24.48Q161.15-25.60 161.41-26.37L161.41-26.37L161.41-26.37Q161.54-26.75 161.89-28.22L161.89-28.22L161.89-28.22Q162.24-29.70 162.62-31.62L162.62-31.62L162.62-31.62Q163.01-33.54 163.36-35.68L163.36-35.68L163.36-35.68Q163.71-37.82 163.84-39.62L163.84-39.62L163.07-39.62L163.07-39.62Q162.94-37.12 162.37-34.50L162.37-34.50L162.37-34.50Q161.79-31.87 160.99-29.22L160.99-29.22L160.99-29.22Q160.19-26.56 159.33-23.87L159.33-23.87L159.33-23.87Q158.46-21.18 157.82-18.50L157.82-18.50L157.82-18.50Q157.70-17.92 157.47-16.51L157.47-16.51L157.47-16.51Q157.25-15.10 157.12-13.34L157.12-13.34L157.12-13.34Q156.99-11.58 156.99-9.63L156.99-9.63L156.99-9.63Q156.99-7.68 157.28-5.92L157.28-5.92L157.28-5.92Q157.57-4.16 158.14-2.75L158.14-2.75L158.14-2.75Q158.72-1.34 159.81-0.77ZM181.06-23.23L181.06-23.23L181.06-23.23Q179.65-19.90 177.18-16.83L177.18-16.83L177.18-16.83Q174.72-13.76 171.84-10.91L171.84-10.91L171.84-10.91Q168.96-8.06 165.92-5.50L165.92-5.50L165.92-5.50Q162.88-2.94 160.38-0.64L160.38-0.64L160.38-0.64Q159.87-0.19 159.07-0.54L159.07-0.54L159.07-0.54Q158.27-0.90 157.89-1.41L157.89-1.41L157.89-1.41Q156.54-3.20 155.90-5.44L155.90-5.44L155.90-5.44Q155.26-7.68 155.14-10.08L155.14-10.08L155.14-10.08Q155.01-12.48 155.30-14.94L155.30-14.94L155.30-14.94Q155.58-17.41 156.16-19.71L156.16-19.71L156.16-19.71Q157.44-25.02 159.07-29.98L159.07-29.98L159.07-29.98Q160.70-34.94 161.47-39.42L161.47-39.42L161.47-39.42Q158.02-39.04 155.30-37.86L155.30-37.86L155.30-37.86Q152.58-36.67 151.68-35.01L151.68-35.01L151.68-35.01Q151.68-34.88 151.58-34.88L151.58-34.88L151.58-34.88Q151.49-34.88 151.62-35.39L151.62-35.39L151.62-35.39Q152.13-37.18 154.11-38.50L154.11-38.50L154.11-38.50Q156.10-39.81 158.85-40.54L158.85-40.54L158.85-40.54Q161.60-41.28 164.77-41.41L164.77-41.41L164.77-41.41Q167.94-41.54 170.94-41.02L170.94-41.02L170.94-41.02Q174.21-40.45 176.61-38.56L176.61-38.56L176.61-38.56Q179.01-36.67 180.38-34.14L180.38-34.14L180.38-34.14Q181.76-31.62 181.98-28.74L181.98-28.74L181.98-28.74Q182.21-25.86 181.06-23.23ZM167.30-37.76L167.30-37.76L167.30-37.76Q168.06-36.10 167.90-33.41L167.90-33.41L167.90-33.41Q167.74-30.72 167.17-27.81L167.17-27.81L167.17-27.81Q166.59-24.90 165.86-22.21L165.86-22.21L165.86-22.21Q165.12-19.52 164.74-17.86L164.74-17.86L164.74-17.86Q163.97-14.78 162.88-11.71L162.88-11.71L162.88-11.71Q161.79-8.64 161.09-6.34L161.09-6.34L161.09-6.34Q160.77-5.44 160.64-5.44L160.64-5.44L160.64-5.44Q160.45-5.44 160.45-5.79L160.45-5.79L160.45-5.79Q160.45-6.14 160.45-6.46L160.45-6.46L160.45-6.46Q160.64-11.20 161.82-15.81L161.82-15.81L161.82-15.81Q163.01-20.42 164.42-25.15L164.42-25.15L164.42-25.15Q165.25-28.03 166.02-31.17L166.02-31.17L166.02-31.17Q166.78-34.30 166.91-37.76L166.91-37.76L166.91-37.76Q166.91-38.21 167.04-38.27L167.04-38.27L167.04-38.27Q167.10-38.27 167.17-38.08L167.17-38.08L167.17-38.08Q167.23-37.89 167.30-37.76ZM174.91-11.20L174.91-11.20L174.91-11.20Q174.98-11.14 174.66-10.69L174.66-10.69L174.66-10.69Q174.34-10.24 173.86-9.70L173.86-9.70L173.86-9.70Q173.38-9.15 172.90-8.61L172.90-8.61L172.90-8.61Q172.42-8.06 172.22-7.87L172.22-7.87L172.22-7.87Q170.88-6.53 169.50-5.15L169.50-5.15L169.50-5.15Q168.13-3.78 166.66-2.82L166.66-2.82L160.90 0.83L160.90 0.83Q160.77 0.90 160.54 0.96L160.54 0.96L160.54 0.96Q160.32 1.02 160.19 0.96L160.19 0.96L160.19 0.96Q160.06 0.90 160.10 0.77L160.10 0.77L160.10 0.77Q160.13 0.64 160.19 0.51L160.19 0.51L160.19 0.51Q160.26 0.38 160.38 0.26L160.38 0.26L160.38 0.26Q161.47-0.51 162.85-1.66L162.85-1.66L162.85-1.66Q164.22-2.82 165.70-4.03L165.70-4.03L165.70-4.03Q166.78-4.86 168.29-6.14L168.29-6.14L168.29-6.14Q169.79-7.42 171.23-8.58L171.23-8.58L171.23-8.58Q172.67-9.73 173.73-10.53L173.73-10.53L173.73-10.53Q174.78-11.33 174.91-11.20ZM219.58-44.35L219.58-44.35L219.58-44.35Q220.03-44.67 219.97-44.38L219.97-44.38L219.97-44.38Q219.90-44.10 219.78-43.90L219.78-43.90L219.78-43.90Q219.20-43.01 218.27-42.37L218.27-42.37L218.27-42.37Q217.34-41.73 216.29-41.34L216.29-41.34L216.29-41.34Q215.23-40.96 214.21-40.77L214.21-40.77L214.21-40.77Q213.18-40.58 212.42-40.58L212.42-40.58L212.42-40.58Q210.43-40.58 208.32-40.96L208.32-40.96L208.32-40.96Q206.21-41.34 204.10-41.79L204.10-41.79L204.10-41.79Q203.97-41.79 203.65-41.92L203.65-41.92L203.65-41.92Q203.33-42.05 203.33-42.18L203.33-42.18L203.33-42.18Q203.20-42.37 203.55-42.50L203.55-42.50L203.55-42.50Q203.90-42.62 204.03-42.62L204.03-42.62L204.03-42.62Q204.48-42.75 205.22-42.85L205.22-42.85L205.22-42.85Q205.95-42.94 206.78-43.01L206.78-43.01L206.78-43.01Q207.62-43.07 208.35-43.07L208.35-43.07L208.35-43.07Q209.09-43.07 209.60-43.07L209.60-43.07L209.60-43.07Q211.01-42.94 212.51-42.94L212.51-42.94L212.51-42.94Q214.02-42.94 215.36-43.07L215.36-43.07L215.36-43.07Q216.70-43.20 217.82-43.52L217.82-43.52L217.82-43.52Q218.94-43.84 219.58-44.35ZM220.48-46.46L220.48-46.46L220.48-46.46Q220.80-46.59 220.67-46.40L220.67-46.40L220.67-46.40Q220.54-46.21 220.48-46.14L220.48-46.14L220.48-46.14Q218.82-44.67 216.83-44.29L216.83-44.29L216.83-44.29Q214.85-43.90 212.70-44L212.70-44L212.70-44Q210.56-44.10 208.29-44.38L208.29-44.38L208.29-44.38Q206.02-44.67 203.71-44.54L203.71-44.54L203.71-44.54Q202.37-44.48 200.90-44.03L200.90-44.03L200.90-44.03Q199.42-43.58 198.11-42.78L198.11-42.78L198.11-42.78Q196.80-41.98 195.74-40.74L195.74-40.74L195.74-40.74Q194.69-39.49 194.11-37.89L194.11-37.89L194.11-37.89Q193.98-37.63 193.95-37.63L193.95-37.63L193.95-37.63Q193.92-37.63 193.89-37.70L193.89-37.70L193.89-37.70Q193.86-37.76 193.86-37.89L193.86-37.89L193.86-37.89Q193.86-38.02 193.86-38.08L193.86-38.08L193.86-38.08Q194.24-40.38 195.26-41.98L195.26-41.98L195.26-41.98Q196.29-43.58 197.70-44.58L197.70-44.58L197.70-44.58Q199.10-45.57 200.77-46.02L200.77-46.02L200.77-46.02Q202.43-46.46 204.10-46.53L204.10-46.53L204.10-46.53Q206.40-46.59 208.61-46.37L208.61-46.37L208.61-46.37Q210.82-46.14 212.90-45.95L212.90-45.95L212.90-45.95Q214.98-45.76 216.90-45.79L216.90-45.79L216.90-45.79Q218.82-45.82 220.48-46.46ZM199.42-41.47L199.42-41.47L199.42-41.47Q199.55-41.28 199.04-40.83L199.04-40.83L199.04-40.83Q198.53-40.38 198.27-40.26L198.27-40.26L198.27-40.26Q197.76-39.87 197.31-39.52L197.31-39.52L197.31-39.52Q196.86-39.17 196.48-38.66L196.48-38.66L196.48-38.66Q195.97-38.08 195.62-37.50L195.62-37.50L195.62-37.50Q195.26-36.93 194.94-36.22L194.94-36.22L194.94-36.22Q194.82-35.78 194.69-35.78L194.69-35.78L194.69-35.78Q194.62-35.78 194.62-36.22L194.62-36.22L194.62-36.67L194.62-36.67Q194.75-37.63 195.01-38.40L195.01-38.40L195.01-38.40Q195.26-39.17 195.90-40L195.90-40L195.90-40Q196.16-40.38 196.77-40.74L196.77-40.74L196.77-40.74Q197.38-41.09 197.95-41.34L197.95-41.34L197.95-41.34Q198.53-41.60 198.98-41.66L198.98-41.66L198.98-41.66Q199.42-41.73 199.42-41.47ZM216.70-40.06L216.70-40.06L216.70-40.06Q217.02-40.19 216.99-40.03L216.99-40.03L216.99-40.03Q216.96-39.87 216.83-39.74L216.83-39.74L216.83-39.74Q216-38.78 214.43-38.34L214.43-38.34L214.43-38.34Q212.86-37.89 211.07-37.73L211.07-37.73L211.07-37.73Q209.28-37.57 207.52-37.63L207.52-37.63L207.52-37.63Q205.76-37.70 204.61-37.70L204.61-37.70L204.61-37.70Q204.99-36.42 204.96-34.59L204.96-34.59L204.96-34.59Q204.93-32.77 204.64-30.69L204.64-30.69L204.64-30.69Q204.35-28.61 203.90-26.50L203.90-26.50L203.90-26.50Q203.46-24.38 203.01-22.53L203.01-22.53L203.01-22.53Q204.74-22.40 206.40-22.18L206.40-22.18L206.40-22.18Q208.06-21.95 209.60-21.86L209.60-21.86L209.60-21.86Q211.14-21.76 212.54-21.86L212.54-21.86L212.54-21.86Q213.95-21.95 215.30-22.46L215.30-22.46L215.30-22.46Q215.62-22.59 215.62-22.40L215.62-22.40L215.62-22.40Q215.62-22.21 215.49-22.08L215.49-22.08L215.49-22.08Q213.95-20.54 212.10-20.16L212.10-20.16L212.10-20.16Q210.24-19.78 208.19-19.90L208.19-19.90L208.19-19.90Q206.14-20.03 204.03-20.35L204.03-20.35L204.03-20.35Q201.92-20.67 199.81-20.61L199.81-20.61L199.81-20.61Q198.46-20.54 197.12-20.16L197.12-20.16L197.12-20.16Q195.78-19.78 194.53-19.01L194.53-19.01L194.53-19.01Q193.28-18.24 192.22-17.12L192.22-17.12L192.22-17.12Q191.17-16 190.53-14.46L190.53-14.46L190.53-14.46Q190.46-14.21 190.34-14.21L190.34-14.21L190.34-14.21Q190.21-14.21 190.21-14.43L190.21-14.43L190.21-14.43Q190.21-14.66 190.27-14.78L190.27-14.78L190.27-14.78Q190.59-16.64 191.36-17.86L191.36-17.86L191.36-17.86Q192.13-19.07 193.22-19.97L193.22-19.97L193.22-19.97Q194.30-24.58 195.68-29.18L195.68-29.18L195.68-29.18Q197.06-33.79 197.95-37.89L197.95-37.89L197.95-37.89Q197.89-37.89 197.54-37.92L197.54-37.92L197.54-37.92Q197.18-37.95 197.18-38.08L197.18-38.08L197.18-38.08Q197.18-38.21 197.38-38.34L197.38-38.34L197.38-38.34Q197.57-38.46 197.76-38.59L197.76-38.59L197.76-38.59Q200.45-39.87 203.26-39.97L203.26-39.97L203.26-39.97Q206.08-40.06 209.02-39.81L209.02-39.81L209.02-39.81Q210.88-39.68 212.77-39.55L212.77-39.55L212.77-39.55Q214.66-39.42 216.70-40.06ZM204.10-37.70L202.62-37.70L202.62-37.70Q202.69-36.10 202.62-34.69L202.62-34.69L202.62-34.69Q202.56-33.28 202.24-32.19L202.24-32.19L202.24-32.19Q201.66-29.89 200.96-27.39L200.96-27.39L200.96-27.39Q200.26-24.90 199.36-22.53L199.36-22.53L199.36-22.53Q199.62-22.59 199.94-22.59L199.94-22.59L199.94-22.59Q200.26-22.59 200.58-22.59L200.58-22.59L201.54-25.60L201.54-25.60Q202.43-28.42 203.17-31.42L203.17-31.42L203.17-31.42Q203.90-34.43 204.10-37.70L204.10-37.70ZM201.09-37.76L199.87-37.76L199.87-37.76Q199.36-33.92 198.02-29.89L198.02-29.89L198.02-29.89Q196.67-25.86 195.58-21.63L195.58-21.63L195.58-21.63Q196.10-21.82 196.51-21.98L196.51-21.98L196.51-21.98Q196.93-22.14 197.31-22.27L197.31-22.27L197.31-22.27Q197.63-23.55 197.95-24.74L197.95-24.74L197.95-24.74Q198.27-25.92 198.59-26.82L198.59-26.82L198.59-26.82Q198.72-27.20 199.04-28.29L199.04-28.29L199.04-28.29Q199.36-29.38 199.74-30.91L199.74-30.91L199.74-30.91Q200.13-32.45 200.51-34.24L200.51-34.24L200.51-34.24Q200.90-36.03 201.09-37.76L201.09-37.76ZM214.72-20.35L214.72-20.35L214.72-20.35Q215.04-20.61 215.01-20.32L215.01-20.32L215.01-20.32Q214.98-20.03 214.85-19.90L214.85-19.90L214.85-19.90Q214.34-19.01 213.54-18.30L213.54-18.30L213.54-18.30Q212.74-17.60 211.84-17.18L211.84-17.18L211.84-17.18Q210.94-16.77 210.02-16.54L210.02-16.54L210.02-16.54Q209.09-16.32 208.38-16.38L208.38-16.38L208.38-16.38Q206.40-16.51 204.22-16.93L204.22-16.93L204.22-16.93Q202.05-17.34 200.06-17.79L200.06-17.79L200.06-17.79Q199.94-17.86 199.65-17.95L199.65-17.95L199.65-17.95Q199.36-18.05 199.36-18.24L199.36-18.24L199.36-18.24Q199.30-18.37 199.58-18.53L199.58-18.53L199.58-18.53Q199.87-18.69 200-18.69L200-18.69L200-18.69Q200.45-18.82 201.12-18.88L201.12-18.88L201.12-18.88Q201.79-18.94 202.53-19.01L202.53-19.01L202.53-19.01Q203.26-19.07 203.94-19.04L203.94-19.04L203.94-19.04Q204.61-19.01 205.06-18.94L205.06-18.94L205.06-18.94Q206.21-18.82 207.58-18.82L207.58-18.82L207.58-18.82Q208.96-18.82 210.34-19.01L210.34-19.01L210.34-19.01Q211.71-19.20 212.86-19.52L212.86-19.52L212.86-19.52Q214.02-19.84 214.72-20.35ZM216.13-8.32L216.13-8.32L216.13-8.32Q216.26-8.38 216.26-8.26L216.26-8.26L216.26-8.26Q216.26-8.13 216.19-8L216.19-8L216.19-8Q214.78-6.46 213.09-6.08L213.09-6.08L213.09-6.08Q211.39-5.70 209.54-5.79L209.54-5.79L209.54-5.79Q207.68-5.89 205.76-6.27L205.76-6.27L205.76-6.27Q203.84-6.66 201.98-6.66L201.98-6.66L201.98-6.66Q199.62-6.72 197.15-5.57L197.15-5.57L197.15-5.57Q194.69-4.42 193.02-1.60L193.02-1.60L193.02-1.60Q192.83-1.34 192.77-1.34L192.77-1.34L192.77-1.34Q192.70-1.34 192.74-1.54L192.74-1.54L192.74-1.54Q192.77-1.73 192.77-1.79L192.77-1.79L192.77-1.79Q193.02-2.50 193.25-2.88L193.25-2.88L193.25-2.88Q193.47-3.26 193.73-3.78L193.73-3.78L193.73-3.78Q192.83-5.57 192.45-7.39L192.45-7.39L192.45-7.39Q192.06-9.22 192-11.20L192-11.20L192-11.20Q192-12.67 192.26-13.38L192.26-13.38L192.26-13.38Q192.51-14.08 193.98-14.85L193.98-14.85L193.98-14.85Q196.42-16.13 199.17-16.13L199.17-16.13L199.17-16.13Q201.92-16.13 204.67-15.81L204.67-15.81L204.67-15.81Q206.46-15.62 208.26-15.52L208.26-15.52L208.26-15.52Q210.05-15.42 211.97-16.06L211.97-16.06L211.97-16.06Q212.29-16.19 212.22-15.97L212.22-15.97L212.22-15.97Q212.16-15.74 212.03-15.62L212.03-15.62L212.03-15.62Q211.20-14.59 209.73-14.21L209.73-14.21L209.73-14.21Q208.26-13.82 206.59-13.73L206.59-13.73L206.59-13.73Q204.93-13.63 203.39-13.70L203.39-13.70L203.39-13.70Q201.86-13.76 200.96-13.70L200.96-13.70L200.58-13.70L200.58-13.70Q200.13-12.16 199.65-10.78L199.65-10.78L199.65-10.78Q199.17-9.41 198.72-8.13L198.72-8.13L198.72-8.13Q199.68-8.45 200.54-8.61L200.54-8.61L200.54-8.61Q201.41-8.77 202.37-8.70L202.37-8.70L202.37-8.70Q204.22-8.64 206.08-8.32L206.08-8.32L206.08-8.32Q207.94-8 209.70-7.78L209.70-7.78L209.70-7.78Q211.46-7.55 213.09-7.58L213.09-7.58L213.09-7.58Q214.72-7.62 216.13-8.32ZM198.40-13.76L198.40-13.76L198.40-13.76Q198.02-13.82 197.22-13.92L197.22-13.92L197.22-13.92Q196.42-14.02 195.46-13.89L195.46-13.89L195.46-13.89Q194.82-13.82 194.37-13.38L194.37-13.38L194.37-13.38Q193.92-12.93 193.86-12.29L193.86-12.29L193.86-12.29Q193.73-10.37 193.92-8.61L193.92-8.61L193.92-8.61Q194.11-6.85 194.56-4.99L194.56-4.99L195.33-5.95L195.33-5.95Q195.26-6.72 195.26-7.62L195.26-7.62L195.26-7.62Q195.26-8.51 195.36-9.25L195.36-9.25L195.36-9.25Q195.46-9.98 195.58-10.43L195.58-10.43L195.58-10.43Q195.71-10.88 195.90-10.88L195.90-10.88L195.90-10.88Q196.03-10.88 196.10-10.56L196.10-10.56L196.10-10.56Q196.16-10.24 196.22-9.86L196.22-9.86L196.22-9.86Q196.29-9.47 196.32-9.09L196.32-9.09L196.32-9.09Q196.35-8.70 196.35-8.51L196.35-8.51L196.35-8.51Q196.42-8.13 196.45-7.78L196.45-7.78L196.45-7.78Q196.48-7.42 196.54-7.04L196.54-7.04L196.54-7.04Q196.86-7.23 197.12-7.42L197.12-7.42L197.12-7.42Q197.38-7.62 197.70-7.74L197.70-7.74L197.70-7.74Q197.76-10.62 198.40-13.76ZM215.68-6.21L215.68-6.21L215.68-6.21Q215.68-6.02 215.55-5.76L215.55-5.76L215.55-5.76Q215.17-4.86 214.46-4.19L214.46-4.19L214.46-4.19Q213.76-3.52 212.93-3.07L212.93-3.07L212.93-3.07Q212.10-2.62 211.23-2.40L211.23-2.40L211.23-2.40Q210.37-2.18 209.73-2.18L209.73-2.18L209.73-2.18Q207.49-2.18 205.66-2.69L205.66-2.69L205.66-2.69Q203.84-3.20 202.05-3.84L202.05-3.84L202.05-3.84Q201.92-3.90 201.66-4.03L201.66-4.03L201.66-4.03Q201.41-4.16 201.34-4.35L201.34-4.35L201.34-4.35Q201.28-4.48 201.60-4.61L201.60-4.61L201.60-4.61Q201.92-4.74 202.05-4.74L202.05-4.74L202.05-4.74Q202.43-4.80 203.04-4.83L203.04-4.83L203.04-4.83Q203.65-4.86 204.32-4.86L204.32-4.86L204.32-4.86Q204.99-4.86 205.63-4.83L205.63-4.83L205.63-4.83Q206.27-4.80 206.72-4.80L206.72-4.80L206.72-4.80Q207.81-4.74 209.09-4.70L209.09-4.70L209.09-4.70Q210.37-4.67 211.55-4.83L211.55-4.83L211.55-4.83Q212.74-4.99 213.79-5.31L213.79-5.31L213.79-5.31Q214.85-5.63 215.42-6.21L215.42-6.21L215.42-6.21Q215.62-6.40 215.68-6.21ZM195.78-17.73L195.78-17.73L195.78-17.73Q195.78-17.54 195.36-17.15L195.36-17.15L195.36-17.15Q194.94-16.77 194.40-16.32L194.40-16.32L194.40-16.32Q193.86-15.87 193.38-15.49L193.38-15.49L193.38-15.49Q192.90-15.10 192.77-14.98L192.77-14.98L192.77-14.98Q192.26-14.46 191.81-13.98L191.81-13.98L191.81-13.98Q191.36-13.50 191.04-12.80L191.04-12.80L191.04-12.80Q190.72-12.22 190.72-12.64L190.72-12.64L190.72-12.64Q190.72-13.06 190.78-13.25L190.78-13.25L190.78-13.25Q190.91-13.76 191.20-14.62L191.20-14.62L191.20-14.62Q191.49-15.49 192.32-16.32L192.32-16.32L192.32-16.32Q192.70-16.64 193.25-16.99L193.25-16.99L193.25-16.99Q193.79-17.34 194.34-17.57L194.34-17.57L194.34-17.57Q194.88-17.79 195.30-17.86L195.30-17.86L195.30-17.86Q195.71-17.92 195.78-17.73ZM213.31-1.86L213.31-1.86L213.31-1.86Q213.38-1.60 213.12-1.47L213.12-1.47L213.12-1.47Q212.35-0.83 210.98-0.54L210.98-0.54L210.98-0.54Q209.60-0.26 208.03-0.13L208.03-0.13L208.03-0.13Q206.46 0 204.99 0L204.99 0L204.99 0Q203.52 0 202.62 0L202.62 0L202.62 0Q201.02 0 199.26-0.22L199.26-0.22L199.26-0.22Q197.50-0.45 196.22-0.77L196.22-0.77L196.22-0.77Q196.10-0.83 195.87-0.86L195.87-0.86L195.87-0.86Q195.65-0.90 195.65-1.02L195.65-1.02L195.65-1.02Q195.65-1.15 195.87-1.25L195.87-1.25L195.87-1.25Q196.10-1.34 196.22-1.41L196.22-1.41L196.22-1.41Q198.66-2.18 201.18-2.08L201.18-2.08L201.18-2.08Q203.71-1.98 206.27-1.66L206.27-1.66L206.27-1.66Q207.87-1.41 209.50-1.28L209.50-1.28L209.50-1.28Q211.14-1.15 212.93-1.86L212.93-1.86L212.93-1.86Q213.31-1.98 213.31-1.86ZM198.14-4.03L198.14-4.03L198.14-4.03Q198.14-3.84 197.73-3.55L197.73-3.55L197.73-3.55Q197.31-3.26 196.80-2.94L196.80-2.94L196.80-2.94Q196.29-2.62 195.81-2.34L195.81-2.34L195.81-2.34Q195.33-2.05 195.14-1.92L195.14-1.92L195.14-1.92Q194.62-1.47 194.24-1.15L194.24-1.15L194.24-1.15Q193.86-0.83 193.47-0.32L193.47-0.32L193.47-0.32Q193.15 0 193.02 0L193.02 0L192.96 0L192.96-0.06L192.96-0.06Q192.96-0.06 192.96-0.19L192.96-0.19L192.96-0.19Q193.28-1.15 193.63-1.79L193.63-1.79L193.63-1.79Q193.98-2.43 194.88-3.14L194.88-3.14L194.88-3.14Q195.26-3.39 195.78-3.68L195.78-3.68L195.78-3.68Q196.29-3.97 196.80-4.13L196.80-4.13L196.80-4.13Q197.31-4.29 197.70-4.29L197.70-4.29L197.70-4.29Q198.08-4.29 198.14-4.03Z" fill="url(#editing-sticker-gradient)" stroke="#000" stroke-width="3"></path></g></g><style>text {
  font-size: 64px;
  font-family: Arial Black;
  dominant-baseline: central;
  text-anchor: middle;
}</style></svg>